<?xml version="1.0" encoding="utf-8"?>
<!-- Generator: Adobe Illustrator 21.0.0, SVG Export Plug-In . SVG Version: 6.00 Build 0)  -->
<svg version="1.1" id="Layer_1" xmlns="http://www.w3.org/2000/svg" xmlns:xlink="http://www.w3.org/1999/xlink" x="0px" y="0px"
	 viewBox="0 0 196.3 71.8" style="enable-background:new 0 0 196.3 71.8;" xml:space="preserve">
<style type="text/css">
	.st0{fill:none;stroke:#FFFFFF;stroke-width:3;stroke-linecap:round;stroke-linejoin:round;stroke-miterlimit:10;}
</style>
<g>
	<path class="st0" d="M120.7,33.2H75.6c-3.3,0-6-2.7-6-6V10.8c0-3.3,2.7-6,6-6h45.1c3.3,0,6,2.7,6,6v16.4
		C126.7,30.5,124,33.2,120.7,33.2z"/>
	<path class="st0" d="M120.7,67H75.6c-3.3,0-6-2.7-6-6V44.6c0-3.3,2.7-6,6-6h45.1c3.3,0,6,2.7,6,6V61C126.7,64.3,124,67,120.7,67z"
		/>
	<path class="st0" d="M186.6,67h-45.1c-3.3,0-6-2.7-6-6V44.6c0-3.3,2.7-6,6-6h45.1c3.3,0,6,2.7,6,6V61C192.6,64.3,189.9,67,186.6,67
		z"/>
	<path class="st0" d="M54.8,67H9.7c-3.3,0-6-2.7-6-6V44.6c0-3.3,2.7-6,6-6h45.1c3.3,0,6,2.7,6,6V61C60.8,64.3,58.1,67,54.8,67z"/>
	<polyline class="st0" points="15.8,57.4 13.3,52.9 15.8,48.3 	"/>
	<polyline class="st0" points="102.7,57.6 98.2,60.1 93.6,57.6 	"/>
	<polyline class="st0" points="93.6,14.3 98.1,11.8 102.7,14.3 	"/>
	<polyline class="st0" points="180.6,48.3 183.1,52.7 180.6,57.4 	"/>
</g>
</svg>
