<?xml version="1.0" encoding="utf-8"?>
<!-- Generator: Adobe Illustrator 21.0.2, SVG Export Plug-In . SVG Version: 6.00 Build 0)  -->
<svg version="1.1" id="Layer_1" xmlns="http://www.w3.org/2000/svg" xmlns:xlink="http://www.w3.org/1999/xlink" x="0px" y="0px"
	 viewBox="0 0 63.6 42" style="enable-background:new 0 0 63.6 42;" xml:space="preserve">
<style type="text/css">
	.st0{fill:#CC0077;}
</style>
<g>
	<path class="st0" d="M53.2,8.7c0.1,26.1-25.9,35.1-48.3,30.8c-4-0.8-3.1-7,0.9-6.2c17.6,3.4,43.6-2,43.5-23.8
		C49.2,5.5,53.1,4.7,53.2,8.7L53.2,8.7z"/>
	<g>
		<g>
			<path class="st0" d="M54.9,5.9c-0.4-3.4-5.4-2.1-5.2,1.1c0.8,5.9,3.2,11.4,7.1,15.9c2.1,2.5,5.9-0.9,3.8-3.4
				C57.4,15.7,55.5,11,54.9,5.9L54.9,5.9z"/>
		</g>
	</g>
	<g>
		<g>
			<path class="st0" d="M35.2,15.4c-3.3,0.2-3.8,5.3-0.5,4.9c10.1-0.1,17.2-6.2,21-15.5c1.2-3-3.5-4.8-4.8-1.8
				C48.1,10,43,15.2,35.2,15.4L35.2,15.4z"/>
		</g>
	</g>
</g>
</svg>
