<?xml version="1.0" encoding="utf-8"?>
<!-- Generator: Adobe Illustrator 21.0.2, SVG Export Plug-In . SVG Version: 6.00 Build 0)  -->
<svg version="1.1" id="Layer_1" xmlns="http://www.w3.org/2000/svg" xmlns:xlink="http://www.w3.org/1999/xlink" x="0px" y="0px"
	 viewBox="0 0 70 70" style="enable-background:new 0 0 70 70;" xml:space="preserve">
<style type="text/css">
	.st0{fill:#BAC900;}
</style>
<g>
	<path class="st0" d="M52,57.9C25.9,58,7,27.6,11.3,5.2c0.8-4,7-3.1,6.2,0.9c-3.4,17.6,11.9,48,33.7,47.9C55.2,53.9,56,57.8,52,57.9
		L52,57.9z"/>
	<g>
		<g>
			<path class="st0" d="M54.8,59.6c3.4-0.4,2.1-5.4-1.1-5.2c-5.9,0.8-11.4,3.2-15.9,7.1c-2.5,2.1,0.9,5.9,3.4,3.8
				C45,62.1,49.7,60.2,54.8,59.6L54.8,59.6z"/>
		</g>
	</g>
	<g>
		<g>
			<path class="st0" d="M45.3,39.9c-0.2-3.3-5.3-3.8-4.9-0.5c0.1,10.1,6.2,17.2,15.5,21c3,1.2,4.8-3.5,1.8-4.8
				C50.7,52.8,45.5,47.7,45.3,39.9L45.3,39.9z"/>
		</g>
	</g>
</g>
</svg>
