<?xml version="1.0" encoding="utf-8"?>
<!-- Generator: Adobe Illustrator 21.0.0, SVG Export Plug-In . SVG Version: 6.00 Build 0)  -->
<svg version="1.1" id="Layer_1" xmlns="http://www.w3.org/2000/svg" xmlns:xlink="http://www.w3.org/1999/xlink" x="0px" y="0px"
	 viewBox="0 0 200 200" style="enable-background:new 0 0 200 200;" xml:space="preserve">
<style type="text/css">
	.st0{fill:#A8A8A8;}
	.st1{fill:#FFFFFF;stroke:#FFFFFF;stroke-width:3.8009;stroke-miterlimit:10;}
</style>
<circle class="st0" cx="100.1" cy="100.1" r="99.9"/>
<g>
	<path class="st1" d="M119.3,112.3c-4.9,0-9.3,2.3-12.1,6l-23.6-13.2c0.6-1.6,0.9-3.3,0.9-5.1c0-1.8-0.3-3.5-0.9-5.1l23.5-13.1
		c2.8,3.7,7.2,6,12.2,6c8.4,0,15.3-6.9,15.3-15.3s-6.9-15.3-15.3-15.3c-8.5,0-15.3,6.9-15.3,15.3c0,1.8,0.3,3.5,0.9,5.1L81.3,90.8
		c-2.8-3.7-7.2-6-12.2-6c-8.4,0-15.3,6.9-15.3,15.3c0,8.5,6.9,15.3,15.4,15.3c5,0,9.4-2.4,12.2-6l23.6,13.2
		c-0.6,1.6-0.9,3.3-0.9,5.1c0,8.4,6.9,15.3,15.3,15.3c8.5,0,15.3-6.9,15.3-15.3C134.7,119.2,127.8,112.3,119.3,112.3z"/>
	<path class="st1" d="M119.4,143c-8.5,0-15.3-6.9-15.3-15.3c0-1.8,0.3-3.5,0.9-5.1l-23.6-13.2c-2.8,3.7-7.2,6-12.2,6
		c-8.5,0-15.4-6.9-15.4-15.3c0-8.5,6.9-15.3,15.3-15.3c5,0,9.4,2.3,12.2,6l23.5-13.1c-0.6-1.6-0.9-3.3-0.9-5.1
		c0-8.5,6.9-15.3,15.3-15.3c8.5,0,15.3,6.9,15.3,15.3s-6.9,15.3-15.3,15.3c-5,0-9.4-2.4-12.2-6L83.6,95c0.6,1.6,0.9,3.3,0.9,5.1
		c0,1.8-0.3,3.5-0.9,5.1l23.6,13.2c2.8-3.6,7.2-6,12.1-6c8.5,0,15.4,6.9,15.4,15.3C134.7,136.1,127.8,143,119.4,143z"/>
</g>
</svg>
