<?xml version="1.0" standalone="no"?>
<!DOCTYPE svg PUBLIC "-//W3C//DTD SVG 20010904//EN"
 "http://www.w3.org/TR/2001/REC-SVG-20010904/DTD/svg10.dtd">
<svg version="1.0" xmlns="http://www.w3.org/2000/svg"
 width="700.000000pt" height="700.000000pt" viewBox="0 0 700.000000 700.000000"
 preserveAspectRatio="xMidYMid meet">
<metadata>
Created by potrace 1.11, written by Peter Selinger 2001-2013
</metadata>
<g transform="translate(0.000000,700.000000) scale(0.100000,-0.100000)"
fill="#000000" stroke="none">
<path d="M2090 5409 c-47 -4 -101 -10 -120 -13 -19 -3 -50 -8 -69 -11 -73 -12
-233 -57 -322 -90 -576 -220 -1002 -695 -1163 -1296 -22 -85 -30 -124 -52
-284 -12 -86 -6 -345 10 -455 20 -130 24 -150 51 -245 146 -518 514 -959 997
-1193 160 -77 385 -148 538 -167 30 -4 82 -11 115 -15 33 -4 511 -9 1063 -9
l1003 -2 -4 1053 c-2 579 -6 1064 -10 1078 -4 14 -10 45 -13 70 -3 25 -12 72
-20 105 -8 33 -17 71 -20 85 -22 106 -148 393 -226 516 -39 61 -144 201 -173
230 -11 12 -39 41 -61 65 -218 233 -520 417 -844 513 -61 18 -227 51 -305 61
-81 9 -283 12 -375 4z m273 -1263 c185 -33 363 -169 445 -339 67 -139 67 -142
67 -547 l0 -365 -346 -1 c-303 0 -356 2 -424 18 -119 28 -226 88 -310 173 -36
37 -85 101 -85 111 0 4 -6 15 -14 23 -18 21 -63 146 -72 202 -8 49 -8 169 0
213 47 256 272 477 521 513 22 3 41 6 43 8 4 4 144 -3 175 -9z"/>
<path d="M5398 5386 c0 -1 -2 -283 -3 -627 l-1 -625 625 0 626 1 0 625 0 625
-622 1 c-343 0 -624 0 -625 0z"/>
<path d="M5403 2877 c-2 -4 -6 -287 -7 -627 l-3 -620 626 2 626 3 0 624 0 624
-618 1 c-341 0 -621 -3 -624 -7z"/>
</g>
</svg>
