<?xml version="1.0" encoding="utf-8"?>
<!-- Generator: Adobe Illustrator 21.0.0, SVG Export Plug-In . SVG Version: 6.00 Build 0)  -->
<svg version="1.1" id="Layer_1" xmlns="http://www.w3.org/2000/svg" xmlns:xlink="http://www.w3.org/1999/xlink" x="0px" y="0px"
	 viewBox="0 0 400 400" style="enable-background:new 0 0 400 400;" xml:space="preserve">
<style type="text/css">
	.st0{fill:#BACC33;}
	.st1{fill:#ED9A21;}
</style>
<g>
	<polygon class="st0" points="308.2,306.9 379.8,306.9 379.8,235.3 308.5,235.3 	"/>
	<rect x="308.2" y="92.2" class="st0" width="71.6" height="71.6"/>
	<path class="st1" d="M128.4,90.4c-59.8,0-108.2,48.5-108.2,108.2c0,59.8,48.5,108.2,108.2,108.2h108.2V198.7
		C236.7,138.9,188.2,90.4,128.4,90.4z M164.5,234.7h-36.1c0,0,0,0,0,0c-19.9,0-36.1-16.2-36.1-36.1c0-19.9,16.2-36.1,36.1-36.1
		c19.9,0,36.1,16.2,36.1,36.1V234.7z"/>
</g>
</svg>
