<?xml version="1.0" encoding="utf-8"?>
<!-- Generator: Adobe Illustrator 21.0.0, SVG Export Plug-In . SVG Version: 6.00 Build 0)  -->
<svg version="1.1" id="Layer_1" xmlns="http://www.w3.org/2000/svg" xmlns:xlink="http://www.w3.org/1999/xlink" x="0px" y="0px"
	 viewBox="0 0 138.7 98.5" style="enable-background:new 0 0 138.7 98.5;" xml:space="preserve">
<style type="text/css">
	.st0{fill:#FFFFFF;}
</style>
<g>
	<g>
		<polygon class="st0" points="99,78.9 118.6,78.9 118.6,59.3 99.1,59.3 		"/>
		<rect x="99" y="20.1" class="st0" width="19.6" height="19.6"/>
		<g>
			<path class="st0" d="M49.7,19.6c-16.4,0-29.6,13.3-29.6,29.6c0,16.4,13.3,29.6,29.6,29.6h29.6V49.3
				C79.4,32.9,66.1,19.6,49.7,19.6 M59.6,59.1h-9.9c0,0,0,0,0,0c-5.5,0-9.9-4.4-9.9-9.9c0-5.5,4.4-9.9,9.9-9.9
				c5.5,0,9.9,4.4,9.9,9.9V59.1z"/>
		</g>
	</g>
</g>
</svg>
