<?xml version="1.0" encoding="utf-8"?>
<!-- Generator: Adobe Illustrator 21.0.2, SVG Export Plug-In . SVG Version: 6.00 Build 0)  -->
<svg version="1.1" id="Layer_1" xmlns="http://www.w3.org/2000/svg" xmlns:xlink="http://www.w3.org/1999/xlink" x="0px" y="0px"
	 viewBox="0 0 69 63" style="enable-background:new 0 0 69 63;" xml:space="preserve">
<style type="text/css">
	.st0{fill-opacity:0.1;}
	.st1{fill:#CC0077;}
</style>
<path class="st0" d="M53.6,23.8c-7.7,0-17.5,6.3-21.9,13.9c-1.7,2.9-2.4,5.7-2,8.1l0.1,0.5l1.8,14.1c0.1,0.3,0.3,0.5,0.7,0.5
	c0.4,0,0.9-0.2,1.2-0.5l17.9-13.9l0.9-0.7c3.1-2.4,5.6-5.2,7.3-8.1C63.9,30.1,61.3,23.8,53.6,23.8z M41.8,44.3
	c-3.5,0-4.7-2.8-2.7-6.3c2-3.5,6.4-6.3,9.9-6.3c3.5,0,4.7,2.8,2.7,6.3C49.7,41.5,45.3,44.3,41.8,44.3z"/>
<g id="Layer_1_1_">
	<g id="Layer_1_2_">
	</g>
</g>
<g id="Layer_1_5_">
	<g id="Layer_1_3_">
	</g>
	<g id="Layer_1_4_">
	</g>
</g>
<path class="st1" d="M31.3,1.8c-12.2,0-22.1,10-22.1,22.1c0,4.6,1.5,9.1,4.2,12.9l0.6,0.8L29.8,60c0.4,0.5,0.9,0.8,1.5,0.8
	c0.6,0,1.2-0.3,1.5-0.8l15.7-22.1l0.8-1.1c2.7-3.8,4.2-8.2,4.2-12.9C53.5,11.8,43.5,1.8,31.3,1.8z M31.3,34.4c-5.5,0-10-4.5-10-10
	c0-5.5,4.5-10,10-10c5.5,0,10,4.5,10,10C41.3,29.9,36.9,34.4,31.3,34.4z"/>
</svg>
