<?xml version="1.0" encoding="utf-8"?>
<!-- Generator: Adobe Illustrator 21.0.2, SVG Export Plug-In . SVG Version: 6.00 Build 0)  -->
<svg version="1.1" id="Layer_1" xmlns="http://www.w3.org/2000/svg" xmlns:xlink="http://www.w3.org/1999/xlink" x="0px" y="0px"
	 viewBox="0 0 729.9 565.4" style="enable-background:new 0 0 729.9 565.4;" xml:space="preserve">
<style type="text/css">
	.st0{fill:none;stroke:#00AACC;stroke-width:1.5596;stroke-miterlimit:10;}
	.st1{fill:none;stroke:#00AACC;stroke-width:0.7798;stroke-miterlimit:10;}
	.st2{fill:none;stroke:#00AACC;stroke-width:0.8301;stroke-miterlimit:10;}
	.st3{fill:none;stroke:#00AACC;stroke-width:0.415;stroke-miterlimit:10;}
	.st4{fill:none;stroke:#CE2477;stroke-width:1.62;stroke-miterlimit:10;}
	.st5{fill:none;stroke:#CE2477;stroke-width:0.81;stroke-miterlimit:10;}
	.st6{opacity:0.5;}
	.st7{fill:none;stroke:#CE2477;stroke-width:2.0356;stroke-miterlimit:10;}
	.st8{fill:none;stroke:#CE2477;stroke-width:1.0178;stroke-miterlimit:10;}
	.st9{opacity:0.25;}
	.st10{fill:none;stroke:#00AACC;stroke-width:1.3141;stroke-miterlimit:10;}
	.st11{fill:none;stroke:#00AACC;stroke-width:0.657;stroke-miterlimit:10;}
	.st12{fill:#A0A0A0;}
</style>
<g>
	<polygon class="st0" points="15.6,99.2 0.8,114.8 3.2,128.8 17.2,141.3 34.4,137.4 42.2,123.4 39.8,103.9 	"/>
	<polyline class="st1" points="17.2,141.3 15.6,100.7 34.4,137.4 	"/>
	<polyline class="st1" points="16.7,100 42.2,123.4 3,127.8 16,98.8 	"/>
</g>
<g>
	<polygon class="st2" points="454.7,21.1 452.2,9.9 445.4,6.8 435.7,9.2 432.2,17.9 436.1,25.5 445.4,30.4 	"/>
	<polyline class="st3" points="435.7,9.2 454,20.7 432.2,17.9 	"/>
	<polyline class="st3" points="454,21.4 436.1,25.5 445.9,7 454.7,21.4 	"/>
</g>
<g>
	<polygon class="st4" points="195.3,21.5 195.3,47.4 226.9,52.3 237.5,38.1 237.5,14.2 210.7,11.8 	"/>
	<polyline class="st4" points="195.5,22.2 226.1,24.7 237.5,14.2 	"/>
	<line class="st4" x1="226.1" y1="24.7" x2="226.1" y2="52.2"/>
	<polyline class="st5" points="211.1,12.2 211.1,33.7 195.7,47.8 	"/>
	<line class="st5" x1="211.5" y1="33.7" x2="237.5" y2="37.7"/>
</g>
<g class="st6">
	<polygon class="st7" points="126.8,322.3 147.8,314.4 176.1,334.8 176.8,355.2 154.4,362.2 127.4,342.8 	"/>
	<polygon class="st8" points="176.8,355.2 169.8,337.9 142.1,319.5 127.4,323.1 131.2,334.7 158.9,353.1 	"/>
	<polyline class="st8" points="147.8,314.4 142.1,319.5 130.7,333.2 127.4,342.8 	"/>
	<polyline class="st8" points="175.3,334.2 168.8,338.3 157.7,353 154.4,362.2 	"/>
</g>
<g class="st9">
	<polygon class="st10" points="76.9,535.2 59.3,530.8 50,538.4 46.7,553.8 56.7,564.8 70.3,564.6 83.6,554.8 	"/>
	<polyline class="st11" points="46.7,553.8 75.8,535.8 56.7,564.8 	"/>
	<polyline class="st11" points="76.8,536.2 70.3,564.6 50.7,537.8 77.4,535.3 	"/>
</g>
<path class="st12" d="M667.6,16.5l-27.4-1l-0.5,13.9l21.8,11.9l5.9-10.9l0.5-13.9H667.6L667.6,16.5L667.6,16.5z M662,30.3l4.7,0.2
	l-5,9.2L662,30.3z M661.3,40.3l-19.9-10.8l20.2,0.8L661.3,40.3z M662,29.5l0.1-2l5.1-9.4l-0.4,11.6L662,29.5z M661.8,27.2l-20-10.9
	l25.4,0.9l0,0L661.8,27.2z M641,16.3l20.7,11.3l-0.1,1.9l-21.1-0.8L641,16.3L641,16.3z"/>
</svg>
