<?xml version="1.0" encoding="utf-8"?>
<!-- Generator: Adobe Illustrator 21.0.2, SVG Export Plug-In . SVG Version: 6.00 Build 0)  -->
<svg version="1.1" id="Layer_1" xmlns="http://www.w3.org/2000/svg" xmlns:xlink="http://www.w3.org/1999/xlink" x="0px" y="0px"
	 viewBox="0 0 729.9 565.4" style="enable-background:new 0 0 729.9 565.4;" xml:space="preserve">
<style type="text/css">
	.st0{fill:none;stroke:#BAC900;stroke-width:2.4218;stroke-miterlimit:10;}
	.st1{fill:none;stroke:#BAC900;stroke-width:1.2109;stroke-miterlimit:10;}
	.st2{fill:none;stroke:#CE2477;stroke-width:0.9073;stroke-miterlimit:10;}
	.st3{fill:none;stroke:#CE2477;stroke-width:0.4537;stroke-miterlimit:10;}
	.st4{fill:none;stroke:#CE2477;stroke-width:1.0686;stroke-miterlimit:10;}
	.st5{fill:none;stroke:#CE2477;stroke-width:0.5343;stroke-miterlimit:10;}
	.st6{fill:#F09900;}
	.st7{fill:#DDDDDD;}
</style>
<g>
	<polygon class="st0" points="108.5,162.3 108.1,136.6 143.6,100.2 167.5,98.1 166.2,125.6 132.4,160.3 	"/>
	<polygon class="st1" points="167.5,98.1 144.6,107.9 111.6,143.4 109.6,161.4 124.7,156.1 157.6,120.5 	"/>
	<polyline class="st1" points="108.1,136.6 111.6,143.4 122.7,156.8 132.4,160.3 	"/>
	<polyline class="st1" points="142.6,101.2 144.6,109 157,122 166.2,125.6 	"/>
</g>
<g>
	<polygon class="st2" points="540.1,29.2 527.5,36.3 533.9,53.1 543.7,54.3 555.3,47.6 549.1,34 	"/>
	<polyline class="st2" points="539.8,29.4 547.1,45 555.3,47.6 	"/>
	<line class="st2" x1="547.1" y1="45" x2="533.7" y2="52.6"/>
	<polyline class="st3" points="549,34.3 538.6,40.2 527.4,36.6 	"/>
	<line class="st3" x1="538.7" y1="40.4" x2="543.9" y2="54.2"/>
</g>
<g>
	<polygon class="st4" points="112.2,421 97.4,429.4 104.9,449.1 116.4,450.5 130.1,442.8 122.8,426.6 	"/>
	<polyline class="st4" points="111.9,421.3 120.4,439.7 130.1,442.8 	"/>
	<line class="st4" x1="120.4" y1="439.7" x2="104.7" y2="448.6"/>
	<polyline class="st5" points="122.7,427 110.4,434 97.3,429.8 	"/>
	<line class="st5" x1="110.5" y1="434.2" x2="116.7" y2="450.4"/>
</g>
<path class="st6" d="M41.4,405l16.3-37l0,0c0.1-0.1,0.1-0.3,0-0.4c-0.1-0.2-0.3-0.3-0.5-0.2c-0.4,0.1-9.8,2.7-11.2,3.2l0,0
	c-0.1,0-0.1,0-0.1,0.1l-25.6,21.1c-0.1,0.1-0.2,0.3-0.1,0.5l3.4,10.2c0,0.1,0.1,0.1,0.1,0.2c0,0,0.1,0.1,0.2,0.1l0,0l12.6,4.3
	c0.1,0,0.2,0,0.3,0l0,0l4.4-1.8C41.2,405.2,41.3,405.1,41.4,405z M50.6,376.2l5-5.8l-2.6,5.9L50.6,376.2z M49.7,375.8l-2.9-4.6
	c1.8-0.5,6.6-1.9,9.1-2.6L49.7,375.8z M24.1,401.5l-3.1-9.2l25-20.6l3.1,4.8L24.1,401.5z M24.8,402.1l23.5-23.5l-12,27.4L24.8,402.1
	z M37.4,405.8L50,377.1l2.6,0.2l-12,27.2L37.4,405.8z"/>
<path class="st7" d="M67.5,302l1.7-49.8L44,251.3L22.5,291l19.8,10.8l25.2,0.9v-0.5V302L67.5,302z M42.5,291.7l-0.3,8.5l-16.7-9.1
	L42.5,291.7z M24.3,290.4L44,254.2L42.5,291L24.3,290.4z M43.9,291.7l3.7,0.1l17.1,9.3l-21.1-0.7L43.9,291.7z M48.1,291.4l19.8-36.3
	l-1.6,46.2h-0.1L48.1,291.4z M67.9,253.6l-20.5,37.6l-3.5-0.1l1.5-38.4L67.9,253.6L67.9,253.6z"/>
<path class="st7" d="M345.9,28.1l-36.1-16.4L301.5,30l22.6,27.9l14-11.3l8.3-18.3L345.9,28.1L345.9,28.1L345.9,28.1z M330.7,43.3
	l6.1,2.8l-11.7,9.5L330.7,43.3z M324.2,56.3l-20.6-25.5L330.2,43L324.2,56.3z M331.1,42.4l1.2-2.6l12.1-9.8l-7,15.3L331.1,42.4z
	 M332.2,39.2l-20.7-25.6L345,28.8v0.1L332.2,39.2z M310.4,13.1l21.4,26.5l-1.2,2.6l-27.8-12.8L310.4,13.1L310.4,13.1z"/>
<path class="st6" d="M88.2,91.4l52-48.5l-24.5-26.3L53.9,34.8L63,65.7L87.6,92L88.2,91.4L88.2,91.4L88.2,91.4z M73.4,55.7L64.5,64
	l-7.6-26L73.4,55.7z M56.4,36.1l56.3-16.6L74.1,55.1L56.4,36.1z M74.7,57.1l3.6,3.8l7.9,26.7l-20.5-22L74.7,57.1z M79.3,61
	l56.6-16.7l-48.2,45l-0.1-0.1L79.3,61z M137.4,42.9L78.8,60.2l-3.4-3.7l40.2-37.2L137.4,42.9L137.4,42.9z"/>
</svg>
