<?xml version="1.0" encoding="utf-8"?>
<!-- Generator: Adobe Illustrator 21.0.2, SVG Export Plug-In . SVG Version: 6.00 Build 0)  -->
<svg version="1.1" id="Layer_1" xmlns="http://www.w3.org/2000/svg" xmlns:xlink="http://www.w3.org/1999/xlink" x="0px" y="0px"
	 viewBox="0 0 100 100" style="enable-background:new 0 0 100 100;" xml:space="preserve">
<style type="text/css">
	.st0{fill:#FFFFFF;}
</style>
<g>
	<path class="st0" d="M26.7,55.6c-0.2,0.1-0.5,0.2-0.7,0.3c-0.4,0.3-0.7,0.6-1,0.9c-0.6,0.6-1.1,1.2-1.8,1.7c-0.8,0.6-1.8,0.9-2.8,1
		c-1.4,0-2.5-0.6-3.4-1.7c-0.6-0.8-0.9-1.6-1.1-2.6c-0.4-2-0.2-3.9,0.5-5.8c0.9-2.3,2.2-4.2,4.1-5.7c1.4-1.2,3.1-1.9,5-2.2
		c0.6-0.1,1.3-0.2,1.9-0.1c0.2,0,0.2,0,0.2-0.2c0.5-2,1.2-3.9,2.1-5.7c1.5-3.2,3.5-6.1,6.1-8.6c2.7-2.5,5.7-4.5,9-6
		c1.8-0.8,3.7-1.5,5.6-2c1.3-0.3,2.6-0.6,3.9-0.7c1.3-0.2,2.7-0.3,4-0.2c1.3,0,2.5,0.1,3.7,0.3c2.2,0.3,4.4,0.9,6.4,1.8
		c7.2,3.2,12,8.4,14.4,15.9c0.4,1.4,0.7,2.9,0.9,4.3c0.2,1.3,0.2,2.7,0.1,4c-0.1,2.9-0.7,5.7-1.5,8.4c-0.9,3-2,5.8-3.3,8.6
		c-0.9,1.9-1.8,3.8-2.7,5.8c-0.6,1.2-1,2.4-1.3,3.8c-0.2,1-0.3,2-0.1,3.1c0.2,0.8,0.5,1.5,1.2,2c0.5,0.4,1,0.5,1.6,0.7
		c0.7,0.1,1.4,0.2,2.1,0.2c0.6,0,1.2,0,1.8,0.2c1,0.4,1.5,1.1,1.6,2.1c0.1,1-0.3,1.8-1,2.4c-0.7,0.6-1.4,1-2.2,1.3
		c-1.8,0.8-3.7,1.3-5.6,1.7c-0.9,0.2-1.9,0.4-2.9,0.5c-1,0.2-2,0.3-3,0.4c-0.9,0.1-1.8,0.2-2.6,0.3c-0.5,0-0.9,0.1-1.4,0.1
		c-1.2,0-2.4,0.1-3.5,0.1c-1.3,0-2.5-0.1-3.8-0.2c-2.3-0.2-4.5-0.6-6.7-1.2c-3-0.9-5.8-2.2-8.4-3.8c-2.7-1.6-5.2-3.6-7.3-5.8
		c-2.5-2.6-4.5-5.6-5.9-9c-0.9-2-1.6-4.1-2.1-6.3c-0.2-1.2-0.4-2.4-0.4-3.6c0-0.1,0-0.1,0-0.2C26.7,55.8,26.7,55.7,26.7,55.6
		C26.7,55.6,26.7,55.6,26.7,55.6z M38,45.6c0,0.3,0,0.8,0.1,1.3c0.4,2.6,1.6,4.8,3.7,6.5c1.3,1.1,2.8,1.7,4.5,2
		c1.2,0.2,2.5,0.1,3.7-0.1c1.6-0.3,3.2-0.8,4.7-1.6c0.9-0.4,1.8-0.9,2.4-1.7c0.6-0.7,1-1.5,1.1-2.4c0.2-1.4-0.4-2.4-1.6-3.1
		c-1-0.6-2.2-0.8-3.4-0.7c-0.8,0-1.7,0.1-2.5,0.2c-0.9,0.1-1.8,0.1-2.7-0.2c-1.1-0.3-2-0.8-2.8-1.6c-0.5-0.6-0.9-1.2-1.3-1.8
		c-0.2-0.3-0.5-0.6-0.7-0.9c-0.9-0.8-1.9-1-3-0.5c-0.9,0.4-1.4,1.1-1.8,2C38.1,43.8,38.1,44.6,38,45.6z M66.9,40.2
		c0-0.2,0-0.5-0.1-0.8c-0.3-1.5-1-2.7-2.4-3.5c-1.5-0.8-3.2-1-4.8-0.6c-1.9,0.5-3.5,1.5-4.8,2.9c-0.6,0.6-0.9,1.3-1.1,2.1
		c-0.1,0.7,0.1,1.1,0.7,1.3c0.2,0.1,0.4,0.2,0.7,0.2c0.9,0.2,1.8,0.3,2.6,0.6c0.9,0.2,1.8,0.6,2.5,1.2c0.3,0.2,0.7,0.5,1,0.7
		c1.5,1,3.1,0.6,4.1-0.4C66.4,42.9,66.8,41.7,66.9,40.2z M48.7,33.1c0-1.1-0.2-2-0.6-2.8c-0.4-0.8-0.9-1.5-1.7-1.9
		c-1-0.6-2.1-0.5-3.2-0.1c-1.3,0.6-2.3,1.5-3,2.8c-0.5,1-0.8,2-0.6,3.1c0.1,0.8,0.5,1.5,1.3,1.9c0.3,0.1,0.6,0.2,0.9,0.3
		c0.4,0.1,0.9,0.2,1.3,0.4c0.7,0.3,1.3,0.8,1.9,1.4c0.2,0.2,0.4,0.3,0.5,0.5c0.3,0.2,0.6,0.2,0.9,0c0.4-0.3,0.8-0.7,1-1.2
		C48.4,36,48.7,34.5,48.7,33.1z"/>
</g>
</svg>
