<?xml version="1.0" standalone="no"?>
<!DOCTYPE svg PUBLIC "-//W3C//DTD SVG 1.1//EN" "http://www.w3.org/Graphics/SVG/1.1/DTD/svg11.dtd" >
<svg xmlns="http://www.w3.org/2000/svg" xmlns:xlink="http://www.w3.org/1999/xlink" version="1.1">
<metadata></metadata>
<defs>
<font id="scriptorama_markdown_jfRg" horiz-adv-x="1153" >
<font-face units-per-em="2048" ascent="1638" descent="-410" />
<missing-glyph horiz-adv-x="716" />
<glyph horiz-adv-x="0" />
<glyph unicode="&#xd;" horiz-adv-x="716" />
<glyph unicode=" "  horiz-adv-x="716" />
<glyph unicode="&#x09;" horiz-adv-x="716" />
<glyph unicode="&#xa0;" horiz-adv-x="716" />
<glyph unicode="!" horiz-adv-x="628" d="M180 90q10 90 38 122t99 30q66 0 103 -35q45 -41 37 -117q-18 -156 -121 -143q-168 18 -156 143zM223 573q0 268 23.5 657.5t42.5 414.5q12 16 45 16q51 0 115.5 -28.5t89.5 -63.5q8 -12 8 -76q0 -164 -53 -629q-39 -338 -60 -475q-4 -29 -38 -47t-74 -18q-57 0 -84 36 q-14 20 -15 213z" />
<glyph unicode="&#x22;" horiz-adv-x="886" d="M180 1544q10 90 38 122t99 30q63 0 103 -35q43 -41 37 -117q-10 -94 -88 -215q-86 -131 -158 -131q-14 0 -27 6q-27 12 19 86q33 45 63 90q14 33 -12 39q-84 18 -74 125zM528 1544q10 90 38 122t100 30q63 0 102 -35q43 -41 37 -117q-10 -94 -88 -215q-86 -131 -158 -131 q-14 0 -27 6q-27 12 19 86q33 45 63 90q14 33 -12 39q-84 18 -74 125z" />
<glyph unicode="#" horiz-adv-x="1384" d="M129 551l53 145h228l92 265h-248l51 145h250l162 455h166l-162 -455h174l164 455h164l-160 -455h219l-51 -145h-221l-92 -265h239l-51 -145h-240l-161 -453h-166l161 453h-176l-162 -453h-165l159 453h-227zM575 696h179l92 265h-178z" />
<glyph unicode="$" horiz-adv-x="1150" d="M115 827q0 90 62.5 212t154.5 212q104 102 217 172q14 199 18 230q4 45 56 45q33 0 61.5 -20.5t30.5 -51.5q2 -14 -4 -123q68 23 127 23q51 -1 94 -19q96 -37 96 -186q0 -131 -70 -311q-61 -160 -96 -181q-14 -8 -33 -8q-43 0 -85 32t-42 65q0 14 13 28q41 43 84 165 t43 185q0 35 -19 35q-33 0 -125 -71l-28 -478q272 -47 272 -233q0 -41 -14 -86q-68 -221 -295 -266l-8 -138q-2 -33 -31 -58.5t-59 -25.5q-51 0 -56 88q2 -29 4 125q-115 6 -217 52q-72 31 -104 59q-14 12 -23.5 56t-3.5 71q8 31 33 31q8 0 18 -4q117 -53 306 -43 q2 80 8 176q-293 16 -371 170q-14 29 -14 71zM360 852q0 -31 64 -45q8 0 86 -8q8 149 18 311l-4 -4q-164 -166 -164 -254zM647 444q137 54 135 109q-2 25 -125 29z" />
<glyph unicode="%" horiz-adv-x="1470" d="M63 1077q0 250 121 457q53 92 127 92q35 0 76 -20q63 -33 70 -37q20 10 39 10q80 0 127 -154q32 -111 32 -213q0 -190 -43 -333q-63 -221 -213 -222q-170 0 -260 131q-76 113 -76 289zM180 27q0 16 10 39q31 66 474 788q406 662 458 745q12 18 54.5 34t78.5 16 q52 0 52 -31q0 -23 -28 -61.5t-962 -1531.5q-29 -47 -81 -48q-55 0 -56 50zM238 1034q0 -68 20 -131q31 -86 86 -86q57 0 100 127q43 121 43 260q0 132 -43 195q-27 39 -49 33q-68 -20 -114 -148q-43 -117 -43 -250zM793 408q0 250 120 456q53 92 127 92q35 0 76 -20 q63 -33 70 -35q20 8 39 8q80 0 127 -153q32 -111 32 -211q0 -193 -43 -336q-63 -221 -213 -221q-170 0 -260 131q-76 113 -75 289zM967 365q0 -68 20 -132q31 -84 86 -83q57 0 100.5 123.5t43.5 261.5q0 131 -43 194q-27 39 -50 33q-68 -20 -114 -148q-43 -117 -43 -249z " />
<glyph unicode="&#x26;" horiz-adv-x="1447" d="M84 317q0 217 342 469q-102 117 -135 265q-10 45 -10 90q0 207 165 358q174 158 416 146q82 -4 188.5 -116t137.5 -216q8 -35 8 -74q0 -229 -340 -510q14 -23 186 -231q84 43 148 43q29 0 61 -17q14 -8 67.5 -60.5t57.5 -68.5q6 -29 -51 -63q-45 -25 -88 -47 q74 -92 74 -95q57 -76 59 -108q2 -27 -52 -59.5t-83 -32.5q-61 0 -135 63l-111 111q-162 -92 -241 -127q-152 -68 -287 -76q-92 -4 -216 94.5t-151 190.5q-10 35 -10 71zM362 264q0 -59 56 -59q61 0 188 71q99 56 156 103q-72 74 -166 180q-68 -45 -139 -125 q-94 -104 -95 -170zM588 1153q0 -90 78 -219q74 57 161 192q96 147 97 224q0 59 -78 59q-102 0 -195 -102q-63 -70 -63 -154z" />
<glyph unicode="'" horiz-adv-x="491" d="M139 1544q10 90 38 122t99 30q63 0 101 -35q45 -41 37 -117q-10 -94 -88 -215q-84 -131 -156 -131q-14 0 -27 6q-29 12 19 86q31 45 61 90q14 33 -12 39q-84 18 -72 125z" />
<glyph unicode="(" horiz-adv-x="780" d="M129 862q8 266 131 549q104 242 166 262q10 2 20 2q45 0 99.5 -33.5t56.5 -54.5q2 -16 -45 -127q-61 -143 -94 -254q-51 -178 -55 -348q-4 -158 51 -354q35 -129 102 -295q57 -138 57 -150q0 -23 -64.5 -68.5t-98.5 -37.5q-76 18 -199 326q-135 334 -127 583z" />
<glyph unicode=")" horiz-adv-x="886" d="M217 1581q0 25 64.5 71t99.5 38q76 -20 199 -328q135 -334 127 -582q-8 -268 -132 -549q-104 -244 -165 -262q-10 -4 -21 -4q-45 0 -99 34t-57 54q-2 16 46 127q61 143 94 254q51 180 55 348q4 158 -49 355q-37 129 -105 295q-57 137 -57 149z" />
<glyph unicode="*" horiz-adv-x="854" d="M156 1317q0 29 18 35q31 8 168 10q-68 121 -80 147q-8 20 16.5 37t55.5 17q25 0 34 -14.5t68 -114.5q61 102 76 122q8 10 20 11q20 0 45 -23.5t25 -46.5q0 -6 -2 -10q-8 -18 -70 -125q133 0 159 -3t26 -38q0 -70 -41 -74q-18 -2 -129 -2q51 -92 59 -106q2 -6 2 -13 q0 -23 -20.5 -45t-42.5 -22q-6 0 -11 2q-16 8 -96 139q-63 -109 -73.5 -124t-36.5 -15q-63 0 -68 39q0 18 70 145q-111 0 -128.5 1t-30.5 23.5t-13 47.5z" />
<glyph unicode="+" horiz-adv-x="1071" d="M109 758q0 51 41 61q57 16 284 21q0 207 2 256q2 37 43 65.5t84 28.5q51 0 62 -41q18 -61 22 -307q214 -2 275 -8q49 -6 49 -70q0 -43 -25.5 -85t-58.5 -44q-43 -4 -240 -6q-2 -238 -8 -303q-4 -51 -68 -52q-45 0 -87 26t-44 62q-4 45 -4 267q-190 0 -237 2 q-35 2 -62.5 43t-27.5 84z" />
<glyph unicode="," horiz-adv-x="628" d="M180 90q10 90 38 122t99 30q63 0 103 -35q43 -41 37 -117q-10 -94 -88 -215q-86 -131 -158 -131q-14 0 -27 6q-27 12 19 86q33 45 63 90q14 33 -12 39q-84 18 -74 125z" />
<glyph unicode="-" horiz-adv-x="925" d="M98 758q0 51 35 61q63 20 350 23q256 0 334 -8q43 -6 43 -70q0 -43 -21.5 -85t-52.5 -44q-49 -4 -307 -6q-248 0 -301 2q-31 2 -55.5 43t-24.5 84z" />
<glyph unicode="." horiz-adv-x="628" d="M180 90q10 90 38 122t99 30q66 0 103 -35q45 -41 37 -117q-18 -156 -121 -143q-168 18 -156 143z" />
<glyph unicode="/" horiz-adv-x="978" d="M-23 2q0 16 5 39q63 236 432 899q336 608 456 758q14 18 39 18q27 0 58 -20q47 -31 47 -78q0 -57 -72 -154q-166 -229 -457 -741q-309 -541 -387 -764q-8 -25 -53 -25q-68 0 -68 68z" />
<glyph unicode="0" horiz-adv-x="1132" d="M61 705q0 426 207 776q31 53 86 100q70 57 131 57q57 0 129 -36q106 -55 119 -60q35 14 66 14q137 0 215 -260q55 -188 55 -362q0 -326 -70 -569q-111 -379 -364 -379q-291 0 -442 225q-131 193 -132 494zM358 631q0 -301 154 -363q14 -6 29 -6q96 0 172 215 q72 207 71 443q1 222 -73 331q-39 55 -68 56q-133 0 -219 -285q-66 -219 -66 -391z" />
<glyph unicode="1" horiz-adv-x="741" d="M199 700q0 379 26 658q4 41 4 74q0 51 -11 85.5t-11 43.5q0 78 104 77q23 0 119 -47q70 -33 94.5 -72.5t24.5 -113.5q0 -24 -2 -57q-10 -150 -12 -414q-2 -186 0 -475q2 -365 2 -387q0 -57 -15 -76q-23 -27 -100 -25q-182 4 -201 189q-23 227 -22 540z" />
<glyph unicode="2" horiz-adv-x="1208" d="M92 1188q27 139 184 299q193 193 416 192q127 0 274.5 -148.5t149.5 -281.5q4 -141 -92 -321q-63 -115 -219 -326q-170 -225 -225 -319q248 10 370 -31q51 -16 99.5 -57t56.5 -78q6 -23 -2 -39q-12 -29 -45 -55.5t-53 -26.5q-6 0 -11 2q-43 33 -135 33 q-66 0 -178.5 -19.5t-130.5 -19.5q-268 0 -338 45q-53 35 -84 125q-16 51 -16 84q0 70 90 145q143 123 366 451q209 309 260 452q4 12 5 25q0 33 -28 57.5t-65 24.5q-23 0 -41 -8q-84 -41 -174 -142q-98 -106 -164 -237q-20 -39 -61 -27q-127 35 -192 148q-18 33 -17 53z " />
<glyph unicode="3" horiz-adv-x="1234" d="M68 295q-2 23 47 60.5t78 37.5q6 0 10 -2q121 -70 190 -94q106 -41 225 -41q66 0 108 39t42 92q0 123 -127 191q-98 53 -217 53q-23 0 -39 -2q-51 -8 -98 90q-41 84 -41 139q0 35 21.5 60.5t49.5 23.5q182 -6 358.5 108.5t182.5 249.5q2 37 -27.5 64t-76.5 27 q-100 0 -217 -88q-94 -72 -168 -173q-12 -16 -52 -8q-47 8 -131 64q-100 61 -90 98q31 117 215 254q213 158 428 158q27 0 54 -4q104 -10 223 -136q129 -135 131 -268q2 -125 -86 -268q-92 -152 -225 -221q121 -45 194 -131q82 -96 82 -217q0 -227 -168 -355 q-156 -119 -387 -108q-229 10 -379 143q-106 94 -110 164z" />
<glyph unicode="4" horiz-adv-x="1294" d="M57 635q31 102 279 555q113 207 139 254q68 113 133 190q33 39 113 39q84 -2 183.5 -41t137 -82t37.5 -71q0 -10 -6 -29q-6 -25 -8 -39q-23 -156 -25 -375q0 31 4 -374q98 -8 132 -51.5t34 -121.5q0 -66 -57 -88q-37 -14 -117 -14q-8 -90 -8 -170q0 -51 4 -114.5t4 -82.5 q0 -51 -88 -51q-72 0 -147.5 33t-77.5 72q-2 98 -14 274q-238 -2 -443 10q-41 2 -130 122t-79 155zM420 649q110 0 276 2v586q-137 -268 -276 -588z" />
<glyph unicode="5" horiz-adv-x="1220" d="M111 221q0 39 18 96q23 72 53 72q10 0 21 -10q113 -119 295 -119q100 0 175 50t95 151q8 47 8 92q0 94 -37 157.5t-100 73.5q-70 12 -164 -69q-59 -59 -119 -121q-20 -20 -100 35q-66 45 -92 73q-18 23 -19 37q0 117 23 381q25 276 27 377q0 49 71 70q66 18 166 26 q158 14 238 27q106 16 368 29q14 2 20.5 -9.5t6.5 -29.5q-2 -49 -43 -144q-43 -100 -80 -123q-18 -10 -47 -8q-145 12 -365 -65q-20 -129 -20 -275q33 10 86 11q195 0 336 -107q196 -145 186 -448q-8 -215 -172 -345q-152 -121 -368 -120q-135 0 -265 53q-139 57 -196 151 q-6 8 -6 31z" />
<glyph unicode="6" horiz-adv-x="1189" d="M104 520q0 289 136 604q123 289 284 443q102 96 178 98q37 2 109 -55q84 -66 76 -129q-2 -27 -33 -41q-59 -29 -84 -45q-139 -98 -201 -314q4 0 105 -4q90 -4 133 -20q135 -55 213 -217q72 -146 72 -316q0 -233 -127 -397q-141 -180 -369 -176q-129 4 -272 92 q-135 84 -168 168q-51 137 -52 309zM434 489q0 -117 29 -204q33 -104 88 -107q84 -4 152.5 100.5t70.5 239.5q2 137 -62.5 240.5t-150.5 103.5q-59 0 -98 -143q-29 -115 -29 -230z" />
<glyph unicode="7" horiz-adv-x="1185" d="M47 1550q0 6 4 11q98 84 512 84q311 0 379 -17q92 -24 184 -223q12 -27 13 -49q0 -37 -39 -90q-94 -129 -283 -486q-180 -342 -332 -669q-51 -117 -51 -138q0 -33 -33 -32q-55 0 -137 76.5t-82 152.5q0 23 8 41q100 244 302 639q219 428 229 455q-193 41 -430 22 q-33 -2 -80 29q-57 37 -110.5 101.5t-53.5 92.5z" />
<glyph unicode="8" horiz-adv-x="1249" d="M102 352q0 266 291 486q-133 131 -178 196q-66 96 -65 191q0 207 180 338q164 121 372 114q106 -4 271 -125q174 -129 178 -231q4 -111 -64 -227q-66 -109 -223 -267q332 -251 305 -456q-27 -203 -184 -320q-145 -106 -346 -106q-37 0 -74 4q-135 14 -282 119 q-160 117 -179 243q-2 20 -2 41zM438 369q0 -78 53.5 -129.5t137.5 -51.5q192 1 192 179q0 78 -67 145q-47 47 -158 115q-158 -117 -158 -258zM475 1186q0 -66 154 -170q215 184 215 274q0 109 -137 113q-88 2 -160 -59.5t-72 -157.5z" />
<glyph unicode="9" horiz-adv-x="1161" d="M98 1094q0 227 131 391q141 172 367 180q98 4 247.5 -76.5t178.5 -148.5q61 -150 61 -336q0 -287 -133 -588q-127 -287 -311 -446q-111 -98 -180 -101q-35 0 -94 47q-70 55 -62 121q2 25 33 39q61 29 84 47q139 98 201 312q-2 2 -105 6q-90 2 -133 20q-135 55 -213 217 q-72 145 -72 316zM416 1098q-2 -135 62.5 -238.5t150.5 -103.5q59 0 98 143q29 114 29 229q0 150 -11 201q-18 102 -86 111q-92 10 -166.5 -96.5t-76.5 -245.5z" />
<glyph unicode=":" horiz-adv-x="628" d="M180 90q10 90 38 122t99 30q66 0 103 -35q45 -41 37 -117q-18 -156 -121 -143q-168 18 -156 143zM223 997q10 90 38 122t99 30q63 0 103 -35q45 -41 35 -117q-16 -156 -119 -143q-168 18 -156 143z" />
<glyph unicode=";" horiz-adv-x="628" d="M180 90q10 90 38 122t99 30q63 0 103 -35q43 -41 37 -117q-10 -94 -88 -215q-86 -131 -158 -131q-14 0 -27 6q-27 12 19 86q33 45 63 90q14 33 -12 39q-84 18 -74 125zM223 997q10 90 38 122t99 30q63 0 103 -35q45 -41 35 -117q-16 -156 -119 -143q-168 18 -156 143z " />
<glyph unicode="&#x3c;" horiz-adv-x="1705" d="M264 625v260l1178 487v-266l-864 -352l864 -353v-264z" />
<glyph unicode="=" horiz-adv-x="1105" d="M201 840q0 51 35 61q63 20 350 23q256 -1 334 -9q43 -6 43 -69q0 -43 -21.5 -85t-52.5 -44q-49 -4 -307 -6q-248 0 -301 2q-31 2 -55.5 43t-24.5 84zM205 532q-8 59 26 64q303 2 697 18q35 7 41 -36q8 -45 -15.5 -101.5t-56.5 -60.5q-49 -4 -307 -4q-248 -2 -301 2 q-29 0 -53.5 39t-30.5 79z" />
<glyph unicode="&#x3e;" horiz-adv-x="1705" d="M264 141v265l864 352l-864 352v266l1178 -487v-260z" />
<glyph unicode="?" horiz-adv-x="1191" d="M219 1278q16 121 199 268q193 158 373 162q98 2 217.5 -100.5t103.5 -180.5q-43 -211 -197 -380q-90 -98 -268 -228q-143 -102 -153 -141q-8 -20 -9 -43q0 -61 52 -115q43 -43 81 -49q14 -4 15 -31q0 -23 -10.5 -48t-22.5 -25q-90 -12 -199 32q-150 57 -163 189 q-12 102 51 200q47 76 151 166l172 144q254 225 254 325q0 51 -53 52q-76 0 -200 -90.5t-181 -194.5q-10 -20 -45 -21q-53 0 -113.5 37t-54.5 72zM367 90q8 90 36.5 122t100.5 30q63 0 100 -35q45 -41 37 -117q-18 -156 -121 -143q-168 18 -153 143z" />
<glyph unicode="@" horiz-adv-x="2048" d="M70 682q0 432 309 713q299 272 735 272q358 0 600 -184q264 -203 264 -551q0 -260 -159 -455q-170 -209 -424 -209q-109 0 -161 42t-63 149q-72 -94 -133 -137q-76 -51 -178 -52q-330 0 -330 336q0 229 129 391q139 178 361 179q145 0 227 -134l62 103h207l-152 -615 q-4 -18 -4 -36q0 -72 67 -72q162 0 269 180q94 154 94 326q0 270 -207 422q-184 137 -465 137q-358 0 -600 -217q-252 -225 -252 -582q0 -326 228 -508q211 -170 544 -170q326 0 594 183l92 -130q-315 -229 -708 -229q-399 0 -664 221q-283 236 -282 627zM774 600 q0 -176 141 -176q88 0 154 72q57 61 80 155q49 199 49 201q0 70 -45 120t-113 50q-125 0 -202 -156q-63 -127 -64 -266z" />
<glyph unicode="A" horiz-adv-x="1331" d="M-20 520q0 47 100 66q2 2 137 16q115 360 229 651q127 326 177 361q86 57 227 74q14 1 25 1q36 0 51 -14q45 -41 219 -831q170 -764 170 -832q0 -27 -59.5 -43t-135.5 -16q-104 0 -137 31q-16 16 -78 329q-150 33 -262 37q-38 2 -78 2q-59 0 -119 -4q-74 -236 -92 -332 q-12 -69 -139 -69h-4q-131 0 -143 53q-1 6 -1 14q0 65 66 308q-16 0 -27 6q-37 20 -79 80q-47 68 -47 112zM539 621q11 0 23 1q173 0 290 -30q-49 260 -98 553q-80 -139 -215 -524z" />
<glyph unicode="B" horiz-adv-x="1052" d="M-6 1511q0 12 8 19q78 72 250 121q139 39 246 41h27q160 0 294 -43q156 -54 193 -144q24 -57 24 -133v-6q0 -168 -90 -338q-94 -178 -225 -229q256 -76 256 -328q0 -25 -2 -51q-18 -174 -112.5 -274.5t-229.5 -108.5h-19q-86 0 -165 33l4 -41q0 -21 -68 -37 q-57 -14 -98 -15q-98 0 -111 52q-82 301 -86 792v32q0 291 35 509q-53 27 -92 72t-39 77zM424 676q2 -219 8 -381h19q142 0 182 102q20 53 20 101q0 82 -63.5 129t-165.5 49zM428 989q82 2 168 53q74 45 135 144q55 94 55 157q0 27 -10 39q-16 16 -86 17q-88 0 -239 -25 l-2 -4q-14 -156 -21 -381z" />
<glyph unicode="C" horiz-adv-x="1120" d="M33 717q0 291 121 549q88 190 218 302.5t269 112.5q168 0 262 -151q80 -131 80 -328q0 -74 -14 -145q-8 -47 -125 -47q-59 0 -135 18q-92 26 -92 64q0 5 1 10q68 201 68 303q0 63 -33 65h-5q-109 0 -212 -274q-86 -225 -98 -385q-2 -33 -2 -63q0 -190 70 -332 q74 -150 188 -160q10 -1 20 -1q107 0 211 97q98 94 138 209q6 18 41 12q65 -10 65 -65q0 -13 -2 -23q-57 -229 -201 -376q-150 -158 -334 -158q-242 0 -382 276q-117 227 -117 490z" />
<glyph unicode="D" horiz-adv-x="1255" d="M-14 1456q-10 35 12 45q233 117 522 121h30q440 0 572 -174q115 -147 115 -414q0 -254 -100 -504q-102 -256 -258 -368q-131 -98 -304 -127q0 -37 -114 -53q-27 -4 -51 -5q-98 0 -113 52q-80 301 -84 792v40q0 219 20 401q-43 -8 -61 0q-37 16 -100 79q-72 70 -86 115z M547 813q0 -264 6 -471q33 8 139 66q129 82 207 284q68 178 68 365q0 150 -49.5 222.5t-186.5 72.5q-47 0 -162 -13q-22 -247 -22 -504v-22z" />
<glyph unicode="E" horiz-adv-x="1101" d="M-6 952q19 11 56 11q16 0 36 -2q10 393 76 571q14 41 98 61q160 39 342 39q116 0 240 -16q51 -6 109.5 -63.5t58.5 -108.5q0 -41 -52 -43q-117 -6 -268 -27q-188 -27 -250 -55q-12 -135 -18 -354q10 -1 21 -1q137 0 397 93q23 8 37 -33q12 -31 12 -59q0 -84 -68 -123 q-156 -94 -401 -142q0 -109 12 -436q131 12 316 86q158 63 260 131q8 6 22 -12q20 -27 21 -82q0 -53 -27 -82q-129 -135 -311 -227q-150 -76 -281 -96q-9 -1 -19 -1q-57 0 -147 48q-104 57 -114 98q-55 219 -64 573q-55 20 -86 93q-22 55 -22 109q0 40 14 50z" />
<glyph unicode="F" horiz-adv-x="1040" d="M51 952q19 11 56 11q16 0 36 -2q2 57 9 141q6 78 6 108q0 53 -11 101q-7 -1 -13 -1q-32 0 -52 26q-22 32 -23 98q0 76 18.5 115.5t205.5 62.5q156 18 360 18q182 0 256 -14q51 -10 109.5 -65.5t58.5 -106.5q0 -41 -51 -43q-115 -6 -268 -27q-186 -27 -250 -55 q-12 -135 -19 -354q33 -2 66 -2q170 0 362 43q25 4 39 -39q10 -33 10 -64q0 -92 -67 -115q-88 -29 -217 -53q-98 -16 -195 -35q-4 -123 -4 -350q0 -151 2 -348q2 -20 -20 -29q-18 -6 -52 0q-61 12 -126.5 52.5t-75.5 78.5q-45 170 -56 596q-55 20 -84 93q-24 55 -24 110 q0 39 14 49z" />
<glyph unicode="G" horiz-adv-x="1214" d="M63 717q0 55 7 110q29 340 202 598q170 250 379 283q7 1 14 1q58 0 159 -57q114 -63 130 -106q61 -145 62 -325q0 -84 -17 -164q-8 -47 -125 -47q-59 0 -135 18q-92 26 -92 64q0 5 2 10q92 272 92 350q0 45 -26 47h-3q-75 0 -190 -199q-135 -229 -153 -489 q-4 -55 -4 -111q0 -211 55 -353t143 -148h9q79 0 147 102q53 80 76 178q-170 12 -199 30.5t-29 119.5q0 61 15 84q12 16 170 20q205 4 352 41q9 2 17 2q65 0 65 -129q0 -55 -11.5 -112.5t-19.5 -63.5t-61 -6q-61 -221 -203 -365q-146 -149 -326 -149h-2q-240 0 -383 276 q-117 227 -117 490z" />
<glyph unicode="H" horiz-adv-x="1277" d="M33 674q-2 7 -2 13q0 29 45 50q6 2 88 31q0 31 -2 59v45q0 448 76 664q17 47 79 47h5q78 -3 146 -69q61 -58 61 -129q0 -9 -1 -19q-23 -205 -26 -516q96 14 170 14h27q68 0 139 -8v89q0 571 49 714q17 45 76 45h10q78 -2 141 -64q65 -60 65 -133q0 -8 -1 -16 q-37 -336 -37 -682q0 -578 28 -780q2 -16 -38.5 -30.5t-92.5 -18.5q-18 -1 -35 -1q-102 0 -116 54q-47 172 -49 553q-76 6 -146 8q-22 1 -45 1q-68 0 -143 -9q6 -406 26 -559q4 -16 -37.5 -30.5t-95.5 -16.5q-15 -1 -28 -1q-106 0 -121 56q-53 193 -74 516q-51 16 -91 52 t-50 71z" />
<glyph unicode="I" horiz-adv-x="538" d="M90 821v45q0 448 76 666q15 45 74 45h10q78 -4 141 -61q59 -55 59 -125q0 -10 -1 -21q-25 -240 -25 -557l29 -784q0 -21 -68 -37q-57 -14 -98 -15q-98 0 -111 52q-82 301 -86 792z" />
<glyph unicode="J" horiz-adv-x="1120" d="M-37 315q-4 8 12 35q25 35 97.5 93.5t107.5 66.5q31 6 35 -12q23 -106 110 -202.5t156 -96.5q12 0 23 4q131 41 131 958q0 145 -2 207q-76 -9 -117 -9q-30 0 -41 5q-37 20 -67.5 81.5t-30.5 108.5q0 18 6 31q16 29 277.5 76t404.5 47q51 0 68 -8q59 -29 59 -123 q0 -77 -39 -100q-27 -18 -195 -54q2 -56 2 -119q0 -209 -20 -498q-27 -378 -59 -507q-25 -98 -185 -217q-164 -121 -300 -121h-13q-160 8 -283 133q-94 96 -137 221z" />
<glyph unicode="K" horiz-adv-x="1175" d="M63 821v31q0 228 27 459q27 221 60 317q15 45 73 45h10q77 -3 143 -63q57 -52 57 -121q0 -10 -1 -21q-35 -340 -35 -708q135 55 262 231q184 252 220 627q2 37 63 37q68 0 140 -38q68 -36 67 -78q0 -203 -125 -462q-84 -168 -205 -305q-92 -104 -141 -127 q23 -211 110 -328q63 -82 154 -137q74 -45 122 -51.5t54 -36.5q4 -27 -10 -61q-18 -43 -54 -52.5t-85 -9.5q-186 0 -334 125q-70 55 -143 182q-68 113 -91 197l25 -444q0 -21 -68 -37q-57 -14 -98 -15q-98 0 -110 52q-82 301 -87 792zM397 760z" />
<glyph unicode="L" horiz-adv-x="1085" d="M74 698q0 215 26 510q27 311 58 381q16 33 78.5 60.5t119.5 27.5q63 0 81 -32.5t18 -118.5q0 -68 -19 -322q-23 -293 -28 -504q-3 -91 -3 -168q0 -169 15 -268h21q107 0 272 35q182 39 280 86q11 6 23 -12q26 -32 26 -86q0 -53 -30 -72q-356 -229 -592 -233h-5 q-65 0 -163 52q-102 54 -113 93q-65 252 -65 562v9z" />
<glyph unicode="M" horiz-adv-x="1374" d="M72 852v52q0 440 65 652q12 41 97 41q17 0 38 -2q106 -8 138 -83.5t327 -903.5q29 174 133 555q109 397 148 441q24 26 91 26h5q139 0 178 -55q20 -31 21 -754l2 -801v-9q0 -35 -29 -57q-28 -20 -64 -21q-6 0 -12 1q-88 4 -131 66q-23 31 -32 821q-158 -475 -222 -786 q-12 -55 -61 -55q-41 0 -93.5 38.5t-78 77.5t-248.5 729q-3 -151 -3 -280q0 -321 21 -496q2 -16 -31.5 -34.5t-76.5 -26.5q-12 -2 -22 -2q-69 0 -87 80q-72 299 -73 786z" />
<glyph unicode="N" horiz-adv-x="1218" d="M96 389q0 625 49 1090q8 74 70 118q55 41 133 41q68 0 80 -28q23 -49 418 -951q-10 127 -10 285q0 416 45 698q8 49 49 54h8q57 0 143 -54q85 -53 85 -98q0 -4 -1 -8q-66 -377 -108 -1569q-2 -31 -41 -35q-8 -1 -16 -1q-43 0 -105 25q-74 30 -86 58q-18 45 -397 842 q-49 -328 -50 -627q0 -141 11 -266q2 -18 -15.5 -31.5t-44.5 -7.5q-55 14 -127 76q-84 74 -86 137q-4 106 -4 252z" />
<glyph unicode="O" d="M43 862q4 307 141 545q106 184 232 248q25 12 51 12q23 0 100 -43q41 29 142 74q23 6 44 6q31 0 60 -12q125 -51 201 -230q85 -202 85 -533q0 -41 -1 -85q-12 -414 -180 -660q-155 -225 -373 -225h-4q-209 2 -355 260q-144 255 -143 633v10zM340 825q-1 -23 -1 -46 q0 -225 73 -386q71 -155 150 -155h3q88 2 158 137q84 165 86 450v15q0 260 -70 420q-61 143 -143 143q-76 0 -156 -152q-92 -176 -100 -426z" />
<glyph unicode="P" horiz-adv-x="1099" d="M-4 1505q0 23 37 41q61 35 200 60q148 26 299 26h11q544 0 544 -398q0 -22 -2 -44q-14 -233 -235 -445q-186 -176 -387 -237q0 -264 16 -428q1 -10 1 -19q0 -90 -91 -90q-61 0 -123.5 42t-68.5 93q-29 219 -29 613q0 293 16 598q-53 8 -120.5 72.5t-67.5 115.5zM469 776 q117 55 227 176q144 158 150 322q0 33 -27 45q-50 24 -268 24h-51q-25 -264 -31 -567z" />
<glyph unicode="Q" d="M43 862q4 307 141 545q106 184 232 248q25 12 51 12q23 0 100 -43q41 29 142 74q23 6 44 6q31 0 60 -12q125 -51 201 -230q85 -202 85 -533q0 -42 -1 -85q-14 -467 -221 -713q152 -229 215 -295q12 -14 12 -28.5t-12 -30.5q-20 -31 -67.5 -52.5t-90.5 -21.5q-68 0 -80 51 q-20 78 -119 256q-89 -51 -187 -51h-7q-209 2 -355 260q-143 255 -143 633v10zM340 811q-1 -24 -1 -47q0 -223 71 -383q72 -156 155 -158q23 0 43 10l-86 146q-5 9 -5 17q0 21 34 34q33 12 72 12q70 0 82 -28q8 -16 24 -45q78 166 80 442v15q0 259 -70 419q-61 143 -143 144 q-76 0 -156 -152q-92 -176 -100 -426z" />
<glyph unicode="R" horiz-adv-x="1191" d="M12 1513q0 16 31 35q61 31 203 58q148 26 302 26h11q544 0 544 -394q0 -21 -1 -42q-14 -221 -160 -393q-94 -113 -188 -158q23 -211 110 -328q63 -82 154 -137q74 -45 122 -51.5t54 -36.5q4 -27 -10 -61q-18 -43 -54 -52.5t-86 -9.5q-186 0 -332.5 123t-244.5 420 q0 -274 16 -440q1 -10 1 -19q0 -81 -81 -82q-59 0 -119.5 41t-66.5 88q-29 221 -29 619q0 299 15 612q-51 6 -121 69.5t-70 112.5zM473 760q117 47 236 174q159 171 159 344q0 53 -100 70q-78 12 -203 12h-59q-27 -279 -33 -600z" />
<glyph unicode="S" horiz-adv-x="1200" d="M47 788q0 115 79 269.5t196 267.5q143 139 294 229q193 117 347 117q63 0 118 -20q123 -49 123 -238q0 -166 -88 -393q-78 -203 -123 -227q-12 -8 -35 -9q-70 0 -164 61.5t-94 110.5q0 14 11 27q68 72 155 215q96 156 97 209q0 20 -19 20q-45 0 -188 -116 q-109 -88 -189 -170q-92 -90 -151.5 -182.5t-59.5 -139.5q0 -45 129 -63q78 -4 156 -11q207 -14 326 -88q129 -82 129 -221q0 -51 -19 -110q-47 -152 -166 -244q-129 -100 -321 -105h-21q-161 0 -307 58q-106 41 -156 86q-34 32 -34 124v5q0 69 42 69h1q10 0 22 -6 q129 -57 321 -56q32 0 66 1q135 8 256 72q111 59 111 109q0 28 -92 36q-14 0 -201 4q-426 10 -532 219q-18 37 -19 90z" />
<glyph unicode="T" horiz-adv-x="1054" d="M-31 1397q-2 13 -2 24q0 55 41 64q209 53 418 104q221 47 405 47q92 0 187 -10q62 -7 62 -128q0 -14 -1 -30q-6 -118 -37 -118h-2q-30 1 -60 1q-139 0 -282 -30q-22 -247 -22 -487v-21l31 -783q0 -22 -70 -38q-57 -14 -98 -15q-96 0 -111 52q-80 301 -84 792v41 q0 205 18 379q-86 -14 -169 -24q-10 -1 -20 -1q-72 0 -130 52q-63 53 -74 129z" />
<glyph unicode="U" horiz-adv-x="1202" d="M76 926q-2 94 -2 174q0 441 47 481q37 31 158 31q94 0 122 -25q12 -8 15 -188q0 -125 -2 -344q-4 -233 -4 -228q0 -238 49 -397q53 -178 145 -180h2q85 0 144 180q47 150 63 375q6 92 12 508q4 291 31 318.5t95.5 52t119.5 24.5q39 0 51 -16q25 -35 25 -322 q-1 -229 -19 -524q-25 -385 -106 -576q-127 -290 -418 -290h-10q-506 8 -518 946z" />
<glyph unicode="V" horiz-adv-x="1261" d="M-8 1571q10 63 145 63q113 0 143.5 -52t358.5 -1193q88 367 156 633q164 635 200 647q15 6 34 6q15 0 32 -4q59 -12 119.5 -52t76.5 -73q3 -6 3 -20q0 -110 -174 -716q-196 -683 -261 -740q-41 -37 -138 -68t-171 -31q-51 0 -74 17q-72 53 -270 792q-181 674 -181 779 q0 7 1 12z" />
<glyph unicode="W" horiz-adv-x="1525" d="M-23 1575q6 33 64 51q43 14 86 14q90 0 119.5 -50t173.5 -1006q68 301 190 925q10 70 35 91.5t100 31.5q34 4 61 4q74 0 95 -32q23 -39 92 -437q68 -373 80 -510q53 311 96 537q102 543 138 555q15 5 35 5q15 0 32 -3q57 -12 119 -52t76 -73q2 -6 2 -22q0 -160 -144 -836 q-147 -694 -201.5 -742.5t-183.5 -48.5q-150 0 -190 52q-8 12 -29 311q-23 354 -47 506q-6 -29 -98 -467q-59 -289 -76 -309q-33 -39 -116 -64.5t-160 -25.5q-84 0 -107 30q-39 47 -145 781q-98 663 -98 770q0 9 1 14z" />
<glyph unicode="X" horiz-adv-x="1175" d="M20 129q0 109 377 719q-256 463 -260 522v8q-1 71 65 190q51 92 82 92q12 0 21 -13q41 -55 270 -533q293 406 445 526q18 14 41 15q57 0 106 -72q41 -66 41 -130q0 -57 -32 -99q-248 -315 -435 -586q174 -362 207 -418q129 -215 193 -227q16 -4 16 -41q-4 -90 -43 -98 q-20 -4 -39 -4q-117 0 -227 118q-55 59 -266 424q-268 -399 -322 -522q-4 -8 -24 -8q-55 0 -132 41q-84 47 -84 96z" />
<glyph unicode="Y" horiz-adv-x="1048" d="M-2 1518q14 41 92 85t141 52q9 1 17 1q35 0 37 -22q10 -109 127 -389q96 -233 137 -305q63 184 115 324q121 330 159 370q6 8 37 8q53 0 121 -18q76 -20 92 -45q2 -3 2 -9q0 -60 -149 -446q-109 -270 -217 -542q-5 -114 -5 -213l19 -340q0 -22 -70 -39q-57 -12 -100 -13 q-117 0 -129 52q-59 221 -66 561q-80 150 -221 497q-141 344 -141 417q0 9 2 14z" />
<glyph unicode="Z" horiz-adv-x="1024" d="M76 162q0 141 178 534q150 328 334 647q-227 -25 -457 -116q-14 -6 -31.5 20.5t-23.5 65.5q-1 13 -1 29q0 28 4 64q7 56 23 67q141 80 374 146.5t380 66.5q82 0 117 -25q12 -7 12 -39q0 -12 -2 -27q41 -16 41 -43q0 -10 -8 -22q-57 -88 -304 -570.5t-333 -676.5 q33 -6 72 -7q111 0 251 39q125 37 218 84q4 2 10 2q23 0 39 -43q12 -35 12 -65q0 -57 -35 -80q-350 -227 -584 -231h-5q-65 0 -165 53q-104 55 -114 98q-2 12 -2 29z" />
<glyph unicode="[" horiz-adv-x="882" d="M182 -113v1831h600v-276h-282v-1288h282v-267h-600z" />
<glyph unicode="\" horiz-adv-x="692" d="M-70 1722h150l633 -1912h-150z" />
<glyph unicode="]" horiz-adv-x="882" d="M162 -115v267h282v1288h-282v276h571v-1831h-571z" />
<glyph unicode="^" horiz-adv-x="1617" d="M250 1184l424 565h330l423 -565h-260l-327 342l-330 -342h-260z" />
<glyph unicode="_" horiz-adv-x="1024" d="M0 -139h1024v-209h-1024v209z" />
<glyph unicode="`" horiz-adv-x="731" d="M160 2009q0 33 78 33q156 0 176 -12q29 -16 73 -154q25 -47 60 -145q4 -29 -45 -29q-18 0 -47 4t-27 4q-45 0 -70 23q-16 14 -107 142t-91 134z" />
<glyph unicode="a" horiz-adv-x="1310" d="M-29 520q0 47 101 66q2 2 137 16q328 1030 414 1073q27 14 53 15q31 0 91 -26q52 -23 84 -23q5 0 9 1q16 2 28 2q34 0 48 -12q43 -41 209 -796q158 -727 158 -795q0 -49 -162 -57q-24 -1 -45 -1q-93 0 -125 29q-18 18 -76 301q-147 33 -262 37q-38 2 -76 2q-58 0 -119 -4 q-74 -236 -92 -332q-12 -69 -139 -69h-4q-131 0 -144 53q-2 6 -2 17q0 67 68 305q-18 0 -29 6q-35 20 -78 80q-47 68 -47 112zM530 621q11 0 22 1q172 0 292 -30q-49 260 -101 553q-78 -139 -213 -524z" />
<glyph unicode="b" horiz-adv-x="1052" d="M-6 1511q0 12 8 19q78 72 250 121q139 39 246 41h27q160 0 294 -43q156 -54 193 -144q24 -57 24 -133v-6q0 -168 -90 -338q-94 -178 -225 -229q256 -76 256 -328q0 -25 -2 -51q-18 -174 -112.5 -274.5t-229.5 -108.5h-19q-86 0 -165 33l4 -41q0 -21 -68 -37 q-57 -14 -98 -15q-98 0 -111 52q-82 301 -86 792v32q0 291 35 509q-53 27 -92 72t-39 77zM424 676q2 -219 8 -381h19q142 0 182 102q20 53 20 101q0 82 -63.5 129t-165.5 49zM428 989q82 2 168 53q74 45 135 144q55 94 55 157q0 27 -10 39q-16 16 -86 17q-88 0 -239 -25 l-2 -4q-14 -156 -21 -381z" />
<glyph unicode="c" horiz-adv-x="1134" d="M49 721q0 53 4 106q29 338 207 607q164 244 330 264q10 1 20 1q73 -1 193 -61q137 -70 168 -145q37 -84 37 -215q0 -102 -23 -221q-10 -47 -127 -47q-59 0 -133 18q-92 25 -92 62q0 6 2 12q84 250 84 325q0 53 -31 60q-7 1 -14 1q-114 0 -223 -312q-100 -283 -101 -428 q0 -190 72 -332q74 -150 186 -160q10 -1 20 -1q107 0 212 97q100 94 139 209q6 18 41 12q65 -10 65 -65q0 -13 -2 -23q-57 -229 -200 -376q-152 -158 -334 -158q-242 0 -385 278q-115 227 -115 492z" />
<glyph unicode="d" horiz-adv-x="1280" d="M-14 1456q-10 35 12 45q233 117 522 121h30q438 0 570 -174q115 -150 115 -416q0 -254 -98 -502q-102 -256 -258 -368q-131 -98 -304 -127q0 -37 -114 -53q-27 -4 -51 -5q-98 0 -113 52q-80 301 -84 792v40q0 219 20 401q-43 -8 -61 0q-37 16 -100 79q-72 70 -86 115z M547 813q0 -115 12 -453q27 4 53 9q35 8 80 39q123 80 201 290q70 188 70 377q0 138 -43 201q-51 76 -189 76q-47 0 -162 -13q-22 -247 -22 -504v-22z" />
<glyph unicode="e" horiz-adv-x="1067" d="M70 821v47q0 459 75 664q16 41 101 61q160 39 342 39q115 0 239 -16q51 -6 108.5 -63.5t57.5 -108.5q0 -41 -51 -43q-115 -6 -268 -27q-186 -27 -250 -55q-10 -119 -14 -313q38 -2 74 -2q190 0 339 53q23 8 39 -33q10 -31 10 -59q0 -84 -65 -123q-158 -94 -404 -142 q0 -109 15 -436q129 12 313 86q160 63 260 131q11 6 25 -12q18 -25 18 -78q0 -55 -28 -86q-131 -137 -310 -229q-156 -82 -278 -94q-8 -1 -16 -1q-60 0 -152 49q-105 56 -115 97q-61 244 -65 694z" />
<glyph unicode="f" horiz-adv-x="991" d="M12 907q0 35 17 45q17 11 55 11q17 0 37 -2q0 57 6 141q6 78 6 108q0 53 -10 101q-7 -1 -13 -1q-32 0 -50 26q-23 32 -23 98q0 76 18.5 115.5t202.5 62.5q156 18 360 18q182 0 259 -14q51 -10 108 -65.5t57 -106.5q0 -41 -51 -43q-115 -6 -268 -27q-186 -27 -250 -55 q-10 -135 -16 -354q33 -2 66 -2q170 0 360 43q25 4 39 -39q12 -33 12 -64q0 -92 -70 -115q-88 -29 -217 -53q-96 -16 -194 -35q-2 -102 -2 -277t2 -421q0 -20 -21 -29q-20 -6 -53 0q-61 12 -127 52.5t-76 78.5q-45 170 -55 596q-53 20 -84 93q-25 57 -25 114z" />
<glyph unicode="g" horiz-adv-x="1214" d="M63 717q0 55 7 110q31 346 208 600t394 254q168 0 264 -178q84 -160 84 -387q0 -98 -19 -188q-8 -49 -124 -49q-59 0 -136 20q-92 26 -92 64q0 5 2 10q57 166 58 364q0 131 -37 140q-5 1 -10 1q-66 0 -160 -184q-115 -221 -133 -483q-4 -55 -4 -111q0 -211 55 -353 t143 -148h9q79 0 147 102q53 80 76 178q-170 12 -199 30.5t-29 119.5q0 61 15 84q12 16 170 20q205 4 352 41q9 2 17 2q65 0 65 -129q0 -55 -11.5 -112.5t-19.5 -63.5t-61 -6q-61 -221 -203 -365q-146 -149 -326 -149h-2q-240 0 -383 276q-117 227 -117 490z" />
<glyph unicode="h" horiz-adv-x="1226" d="M-31 668q-8 33 13 45q49 29 174 65v43v34q0 224 24 433q25 199 58 297q17 45 76 45h10q76 -4 139 -63q58 -58 58 -130q0 -10 -1 -20q-27 -254 -33 -565q70 8 125 10q80 0 168 -8v79q0 472 45 603q15 45 74 45h10q79 -3 149 -67q62 -56 61 -126q0 -10 -1 -20 q-31 -299 -31 -561q0 -578 29 -782q2 -16 -37 -32t-92 -18q-19 -1 -36 -1q-108 0 -124 55q-45 172 -47 555q-78 6 -145 8h-36q-55 0 -114 -4v-90q0 -455 19 -590q4 -16 -38 -31.5t-97 -19.5h-16q-110 0 -124 53q-51 186 -67 629q-10 -2 -17 0q-61 6 -112 48t-64 81z" />
<glyph unicode="i" horiz-adv-x="561" d="M96 821v45q0 448 76 666q15 45 74 45h10q78 -4 145 -66q63 -61 63 -131q0 -10 -1 -20q-25 -240 -25 -557q0 -577 29 -780q2 -18 -47 -34t-109 -16h-8q-108 0 -123 56q-80 301 -84 792z" />
<glyph unicode="j" horiz-adv-x="1120" d="M-37 315q-4 8 12 35q25 35 97.5 93.5t107.5 66.5q31 6 35 -12q23 -106 110 -202.5t156 -96.5q12 0 23 4q131 41 131 958q0 145 -2 207q-76 -9 -117 -9q-30 0 -41 5q-37 20 -67.5 81.5t-30.5 108.5q0 18 6 31q16 29 277.5 76t404.5 47q51 0 68 -8q59 -29 59 -123 q0 -77 -39 -100q-27 -18 -195 -54q2 -56 2 -119q0 -209 -20 -498q-27 -378 -59 -507q-25 -98 -185 -217q-164 -121 -300 -121h-13q-160 8 -283 133q-94 96 -137 221z" />
<glyph unicode="k" horiz-adv-x="1191" d="M63 821v31q0 228 27 459q27 221 60 317q15 45 73 45h10q77 -3 143 -63q57 -52 57 -121q0 -10 -1 -21q-35 -340 -35 -708q135 55 262 231q184 252 220 627q2 37 63 37q68 0 140 -38q68 -36 67 -78q0 -203 -125 -462q-84 -168 -205 -305q-92 -104 -141 -127 q12 -111 149.5 -255t243.5 -161q49 -6 55 -36q4 -25 -10 -60q-18 -43 -53 -52t-72 -9q-168 0 -358.5 128t-231.5 273l25 -444q0 -21 -68 -37q-57 -14 -98 -15q-98 0 -110 52q-82 301 -87 792zM397 760z" />
<glyph unicode="l" horiz-adv-x="1075" d="M86 698q0 219 23 502q25 301 55 369q16 33 78.5 61.5t119.5 28.5q63 0 81 -35t18 -127q0 -70 -17 -311q-18 -283 -24 -486q-3 -91 -3 -168q0 -169 15 -268h21q107 0 272 35q182 39 281 86q10 6 22 -12q23 -29 23 -86q0 -53 -33 -76q-135 -88 -291 -154q-176 -72 -295 -75 h-5q-61 0 -161 52q-104 54 -114 93q-66 256 -66 571z" />
<glyph unicode="m" horiz-adv-x="1374" d="M72 852v52q0 440 65 652q12 41 97 41q17 0 38 -2q106 -8 138 -83.5t327 -903.5q29 174 133 555q109 397 148 441q24 26 91 26h5q139 0 178 -55q20 -31 21 -754l2 -801v-9q0 -35 -29 -57q-28 -20 -64 -21q-6 0 -12 1q-88 4 -131 66q-23 31 -32 821q-158 -475 -222 -786 q-12 -55 -61 -55q-41 0 -93.5 38.5t-78 77.5t-248.5 729q-3 -151 -3 -280q0 -321 21 -496q2 -16 -31.5 -34.5t-76.5 -26.5q-12 -2 -22 -2q-69 0 -87 80q-72 299 -73 786z" />
<glyph unicode="n" horiz-adv-x="1202" d="M90 410q0 625 51 1089q8 74 66.5 117t134.5 43q70 0 82 -29q23 -49 418 -950q-12 143 -13 305q0 332 39 576q8 49 50 51h8q57 0 143 -52q85 -52 85 -98q0 -4 -1 -8q-63 -369 -102 -1393q0 -35 -41 -41q-12 -1 -25 -1q-45 0 -100 16q-78 20 -92 59q-16 47 -387 783 q-49 -328 -50 -627q0 -141 13 -266q2 -18 -15.5 -31.5t-44.5 -7.5q-55 14 -127 75q-84 74 -86 138q-6 106 -6 252z" />
<glyph unicode="o" d="M43 862q4 307 141 545q106 184 232 248q25 12 51 12q23 0 100 -43q41 29 142 74q23 6 44 6q31 0 60 -12q125 -51 201 -230q85 -202 85 -533q0 -41 -1 -85q-12 -414 -180 -660q-155 -225 -373 -225h-4q-209 2 -355 260q-144 255 -143 633v10zM340 823q-1 -23 -1 -46 q0 -225 73 -386q71 -155 150 -155h3q88 2 158 137q84 165 86 450v15q0 260 -70 419q-61 143 -143 144q-76 0 -156 -152q-92 -176 -100 -426z" />
<glyph unicode="p" horiz-adv-x="1118" d="M8 1526q0 23 37 41q61 35 201 59q154 27 309 27q545 -1 545 -399q0 -21 -2 -44q-14 -233 -236 -444q-186 -176 -387 -238q0 -299 14 -446q1 -10 1 -20q0 -91 -89 -91q-61 0 -123.5 42t-70.5 96q-27 213 -27 604q0 305 17 624q-53 8 -121 73t-68 116zM481 797 q117 55 228 176q143 157 149 321q2 33 -27 45q-51 25 -284 25h-35q-25 -264 -31 -567z" />
<glyph unicode="q" d="M43 862q4 307 141 545q106 184 232 248q25 12 51 12q23 0 100 -43q41 29 142 74q23 6 44 6q31 0 60 -12q125 -51 201 -230q85 -202 85 -533q0 -42 -1 -85q-14 -467 -221 -713q152 -229 215 -295q12 -14 12 -28.5t-12 -30.5q-20 -31 -67.5 -52.5t-90.5 -21.5q-68 0 -80 51 q-20 78 -119 256q-89 -51 -187 -51h-7q-209 2 -355 260q-143 255 -143 633v10zM340 811q-1 -24 -1 -47q0 -223 71 -383q72 -156 155 -158q23 0 43 10l-86 146q-5 9 -5 17q0 21 34 34q33 12 72 12q70 0 82 -28q8 -16 24 -45q78 166 80 442v15q0 259 -70 419q-61 143 -143 144 q-76 0 -156 -152q-92 -176 -100 -426z" />
<glyph unicode="r" horiz-adv-x="1161" d="M-18 1513q0 16 30 35q61 31 201 58q150 26 304 26h11q544 0 544 -394q0 -21 -1 -42q-16 -221 -160 -393q-94 -113 -190 -158q10 -80 92 -199q57 -84 156 -141q74 -43 129 -51q47 -6 53 -37q6 -25 -10 -59q-16 -43 -53 -52.5t-91 -9.5q-197 0 -338 124t-225 310 q0 -283 19 -458q1 -10 1 -19q0 -81 -83 -82q-57 0 -119 41t-68 88q-26 213 -26 591v28q0 299 14 612q-53 6 -121.5 69.5t-68.5 112.5zM436 682q113 57 197 158q123 146 123 330v6q-2 96 -99 147q-73 37 -166 37h-18q-29 -313 -37 -678z" />
<glyph unicode="s" horiz-adv-x="1200" d="M47 788q0 115 79 269.5t196 267.5q143 139 294 229q193 117 347 117q63 0 118 -20q123 -49 123 -238q0 -166 -88 -393q-78 -203 -123 -227q-12 -8 -35 -9q-70 0 -164 61.5t-94 110.5q0 14 11 27q68 72 155 215q96 156 97 209q0 20 -19 20q-45 0 -188 -116 q-109 -88 -189 -170q-92 -90 -151.5 -182.5t-59.5 -139.5q0 -45 129 -63q78 -4 156 -11q207 -14 326 -88q129 -82 129 -221q0 -51 -19 -110q-47 -152 -166 -244q-129 -100 -321 -105h-21q-161 0 -307 58q-106 41 -156 86q-34 32 -34 124v5q0 69 42 69h1q10 0 22 -6 q129 -57 321 -56q32 0 66 1q135 8 256 72q111 59 111 109q0 28 -92 36q-14 0 -201 4q-426 10 -532 219q-18 37 -19 90z" />
<glyph unicode="t" horiz-adv-x="1054" d="M-8 1397q-2 13 -2 24q0 55 41 64q209 53 420 104q221 47 403 47q92 0 186 -10q63 -7 63 -129q0 -14 -1 -29q-6 -118 -37 -118h-2q-30 1 -60 1q-139 0 -282 -30q-20 -258 -21 -508l29 -783q0 -22 -67 -38q-57 -14 -99 -15q-98 0 -112 52q-80 301 -84 792v41q0 205 18 379 q-84 -14 -170 -24q-10 -1 -19 -1q-71 0 -130 52q-63 53 -74 129z" />
<glyph unicode="u" horiz-adv-x="1202" d="M76 926q-2 94 -2 174q0 441 47 481q37 31 158 31q94 0 122 -25q12 -8 15 -188q0 -125 -2 -344q-4 -233 -4 -228q0 -238 49 -397q53 -178 145 -180h2q85 0 144 180q47 150 63 375q6 92 12 508q4 291 31 318.5t95.5 52t119.5 24.5q39 0 51 -16q25 -35 25 -322 q-1 -229 -19 -524q-25 -385 -106 -576q-127 -290 -418 -290h-10q-506 8 -518 946z" />
<glyph unicode="v" horiz-adv-x="1261" d="M-8 1571q10 63 145 63q113 0 143.5 -52t358.5 -1193q88 367 156 633q164 635 200 647q15 6 34 6q15 0 32 -4q59 -12 119.5 -52t76.5 -73q3 -6 3 -20q0 -110 -174 -716q-196 -683 -261 -740q-41 -37 -138 -68t-171 -31q-51 0 -74 17q-72 53 -270 792q-181 674 -181 779 q0 7 1 12z" />
<glyph unicode="w" horiz-adv-x="1525" d="M-23 1575q6 33 64 51q43 14 86 14q90 0 119.5 -50t173.5 -1006q68 301 190 925q10 70 35 91.5t100 31.5q34 4 61 4q74 0 95 -32q23 -39 92 -437q68 -373 80 -510q53 311 96 537q102 543 138 555q15 5 35 5q15 0 32 -3q57 -12 119 -52t76 -73q2 -6 2 -22q0 -160 -144 -836 q-147 -694 -201.5 -742.5t-183.5 -48.5q-150 0 -190 52q-8 12 -29 311q-23 354 -47 506q-6 -29 -98 -467q-59 -289 -76 -309q-33 -39 -116 -64.5t-160 -25.5q-84 0 -107 30q-39 47 -145 781q-98 663 -98 770q0 9 1 14z" />
<glyph unicode="x" horiz-adv-x="1175" d="M20 129q0 109 377 719q-256 463 -260 522v8q-1 71 65 190q51 92 82 92q12 0 21 -13q41 -55 270 -533q293 406 445 526q18 14 41 15q57 0 106 -72q41 -66 41 -130q0 -57 -32 -99q-248 -315 -435 -586q174 -362 207 -418q129 -215 193 -227q16 -4 16 -41q-4 -90 -43 -98 q-20 -4 -39 -4q-117 0 -227 118q-55 59 -266 424q-268 -399 -322 -522q-4 -8 -24 -8q-55 0 -132 41q-84 47 -84 96z" />
<glyph unicode="y" horiz-adv-x="1112" d="M29 1518q14 41 96 86q76 43 137 51q9 1 17 1q35 0 38 -22q10 -109 125 -389q96 -233 140 -305q63 184 114 324q121 330 160 370q6 8 35 8q55 0 123 -18q76 -20 92 -45q1 -2 1 -8q0 -57 -151 -447q-106 -270 -215 -542q-5 -111 -5 -209l20 -344q0 -22 -70 -39 q-57 -12 -100 -13q-117 0 -131 52q-59 221 -64 561q-80 150 -221 497q-143 348 -143 419q0 8 2 12z" />
<glyph unicode="z" horiz-adv-x="1024" d="M76 162q0 141 178 534q150 328 334 647q-227 -25 -457 -116q-14 -6 -31.5 20.5t-23.5 65.5q-1 13 -1 29q0 28 4 64q7 56 23 67q141 80 374 146.5t380 66.5q82 0 117 -25q12 -7 12 -39q0 -12 -2 -27q41 -16 41 -43q0 -10 -8 -22q-57 -88 -304 -570.5t-333 -676.5 q22 -2 45 -2q99 0 229 28q156 35 267 90q4 2 8 2q25 0 41 -43q12 -35 12 -65q0 -57 -35 -80q-350 -227 -584 -231h-5q-65 0 -165 53q-104 55 -114 98q-2 12 -2 29z" />
<glyph unicode="{" horiz-adv-x="1024" d="M145 633v246q10 -2 15 -2q131 0 185 61t54 197v264q0 115 17 166q23 61 86 94q90 43 340 43h63v-248h-24q-106 0 -141 -39t-35 -143v-244q0 -127 -56 -178q-66 -57 -274 -94q209 -37 274 -94q55 -51 56 -177v-245q0 -102 34.5 -141.5t139.5 -39.5h26v-247h-63 q-250 0 -340 43q-63 33 -86 94q-16 49 -17 164v264q0 135 -54 196.5t-185 61.5q-4 0 -15 -2z" />
<glyph unicode="|" horiz-adv-x="1024" d="M373 -279v2048h280v-2048h-280z" />
<glyph unicode="}" horiz-adv-x="1024" d="M121 59h24q106 0 141.5 38t35.5 143v245q0 125 55 177q66 57 274 94q-209 37 -274 94q-55 49 -55 176v246q0 104 -35 143t-142 39h-24v248h63q248 0 338 -43q70 -35 92 -113q12 -45 13 -147v-264q0 -135 54 -196.5t185 -61.5q4 0 15 2v-246q-10 2 -15 2 q-131 0 -185 -61.5t-54 -196.5v-264q0 -102 -13 -148q-23 -78 -92 -112q-86 -41 -323 -41h-78v247z" />
<glyph unicode="~" horiz-adv-x="1705" d="M178 1137v272q221 147 400 147q117 0 311 -70.5t285 -70.5q166 0 356 141v-270q-193 -137 -361 -137q-100 0 -296.5 69.5t-319.5 69.5q-164 0 -375 -151z" />
<glyph unicode="&#xa1;" horiz-adv-x="663" d="M180 113q0 164 53 628q39 338 60 476q4 29 38 47t75 18q56 0 83 -37q14 -20 15 -213q0 -268 -23.5 -657t-42.5 -414q-12 -16 -45 -16q-49 0 -114.5 28.5t-90.5 63.5q-8 12 -8 76zM270 1516q18 156 121 143q168 -18 156 -143q-10 -90 -38 -122t-99 -30q-66 0 -103 35 q-45 41 -37 117z" />
<glyph unicode="&#xa2;" horiz-adv-x="1087" d="M143 723q0 238 103 465q117 264 311 334q8 111 10 131q4 45 56 45q33 0 61.5 -20.5t30.5 -51.5q2 -12 -2 -90q115 -25 178 -145q55 -109 55 -256q0 -63 -10 -123q-8 -43 -107 -43q-41 0 -88 32q-29 18 -22 39q20 57 20 129q0 109 -37 166q-16 -305 -61 -1001q92 2 180 92 q78 76 109 166q4 16 35 10q55 -8 55 -55q0 -9 -2 -19q-43 -174 -148 -295q-109 -127 -245 -151l-13 -111q-2 -33 -30.5 -58.5t-59.5 -25.5q-27 0 -41 21q0 66 2 180q-137 39 -235 209q-104 184 -105 426zM401 803q-18 -242 91 -389q14 331 45 825q-117 -188 -136 -436z" />
<glyph unicode="&#xa3;" horiz-adv-x="1062" d="M25 717q0 39 32 51q27 10 103 16q10 539 69 637q76 123 236 131q143 8 245.5 -63.5t102.5 -177.5q0 -20 -60.5 -49t-66.5 -19q-43 86 -119 86q-78 -2 -98 -87t-27 -451q129 -2 175.5 -7.5t46.5 -56.5q0 -35 -23 -67.5t-51 -34.5q-35 -2 -152 -4q-6 -211 13 -320 q92 -4 249 31q152 33 236 71q8 4 18 -10q23 -29 23 -78q0 -41 -27 -57q-301 -195 -499 -197q-55 -2 -142.5 44.5t-95.5 78.5q-51 199 -55 437q-37 0 -52 2q-33 0 -57 30.5t-24 63.5z" />
<glyph unicode="&#xa4;" horiz-adv-x="1241" d="M55 856q0 37 38 50.5t190 17.5q45 262 187 443t308 181q143 0 221 -129q68 -111 68 -276q0 -63 -10 -123q-8 -41 -107 -41q-51 0 -114 16q-88 23 -76 62q57 170 57 256q0 55 -29 57q-51 2 -129 -123q-88 -139 -120 -321q182 0 235 -8q45 -4 45 -56q0 -31 -20.5 -60.5 t-50.5 -31.5q-39 -4 -228 -4q0 -47 4 -92q164 -2 215 -8q45 -6 45 -56q0 -33 -20.5 -61.5t-50 -31.5t-150.5 -3q63 -162 176 -172q98 -10 195 82q84 78 117 176q6 14 34 10q55 -10 56 -57q0 -8 -2 -16q-47 -195 -172 -324t-279 -129t-266 143q-94 117 -133 285 q-113 0 -143.5 2t-57.5 30.5t-27 59.5q0 37 36 49.5t169 18.5q-2 45 -2 94h-123q-33 2 -59.5 30.5t-26.5 59.5z" />
<glyph unicode="&#xa7;" horiz-adv-x="1116" d="M53 819q0 174 193 281q-119 100 -119 246q0 170 123 256q104 76 285 75q428 0 444 -344h-293q-8 139 -143 140q-125 0 -125 -99q0 -76 166 -147q254 -111 305 -146q164 -110 164 -282q0 -197 -195 -273q137 -117 137 -260q0 -166 -135 -252q-115 -74 -291 -73 q-436 0 -448 366h282q2 -68 47.5 -112.5t112.5 -44.5q53 0 94 29.5t41 78.5q0 74 -168 137q-250 96 -309 135q-168 109 -168 289zM313 850q0 -57 101 -105q90 -35 266 -110q108 41 108 123q0 63 -100 112q-88 39 -260 121q-115 -61 -115 -141z" />
<glyph unicode="&#xa8;" horiz-adv-x="1024" d="M180 1892q0 41 17 64q29 41 149 41q43 0 49 -2q23 -4 35 -29q27 -58 27 -158q0 -74 -51 -100q-35 -16 -117 -16q-98 0 -96 63q0 23 -6.5 70t-6.5 67zM551 1923q0 41 31.5 58.5t165.5 17.5q75 0 75 -174q0 -82 -49 -111q-35 -20 -119 -20q-104 0 -98 61q2 23 2 45 q0 29 -4 69t-4 54z" />
<glyph unicode="&#xa9;" horiz-adv-x="1705" d="M102 741q0 313 218.5 532.5t531.5 219.5q315 0 534.5 -217.5t219.5 -534.5q0 -311 -221.5 -531t-532.5 -220q-307 0 -528.5 222t-221.5 529zM256 743q0 -246 176 -422t422 -176q248 0 423 175t175 423t-175 423t-423 175t-423 -175t-175 -423zM532 678q0 184 91 362 q109 215 274 215q100 0 156 -90q47 -80 47 -196q0 -45 -8 -86q-2 -18 -35 -27q-35 -6 -105 6q-80 14 -69 45q41 121 41 183q0 39 -21 38q-43 2 -106 -110q-70 -127 -82 -283q-8 -125 35 -225t118 -109q70 -6 138 60q59 55 84 125q2 10 24 6q47 -8 37 -51 q-35 -137 -123 -229.5t-197 -92.5q-143 0 -229 166q-70 135 -70 293z" />
<glyph unicode="&#xab;" horiz-adv-x="942" d="M72 799q0 145 90 176q37 14 225 106q20 0 31 -39q8 -30 8 -57q-2 -25 -4 -47.5t-27 -38.5q-78 -33 -186 -96q18 -16 92 -52t86 -44q35 -27 35 -107q0 -88 -21 -88l-117 66q-118 65 -132 63q-80 29 -80 158zM465 799q0 145 90 176q37 14 225 106q20 0 31 -39q8 -30 8 -57 q-2 -25 -4 -47.5t-27 -38.5q-78 -33 -186 -96q18 -16 92 -52t86 -44q35 -27 35 -107q0 -88 -20 -88l-118 66q-118 65 -132 63q-80 29 -80 158z" />
<glyph unicode="&#xad;" horiz-adv-x="925" d="M98 758q0 51 35 61q63 20 350 23q256 0 334 -8q43 -6 43 -70q0 -43 -21.5 -85t-52.5 -44q-49 -4 -307 -6q-248 0 -301 2q-31 2 -55.5 43t-24.5 84z" />
<glyph unicode="&#xae;" horiz-adv-x="1705" d="M102 741q0 313 218.5 532.5t531.5 219.5q315 0 534.5 -217.5t219.5 -534.5q0 -311 -221.5 -531t-532.5 -220q-307 0 -528.5 222t-221.5 529zM256 743q0 -246 176 -422t422 -176q248 0 423 175t175 423t-175 423t-423 175t-423 -175t-175 -423zM508 1155q0 10 16 21 q92 47 293 47q326 0 309 -248q-10 -125 -92 -223q-53 -63 -106 -88q12 -121 63 -187q74 -96 156 -106q27 -5 31 -23q2 -14 -7 -33q-10 -25 -30.5 -29.5t-46.5 -4.5q-106 0 -189.5 68.5t-140.5 238.5q0 -156 10 -250q6 -57 -45 -57q-33 0 -67.5 22.5t-38.5 50.5 q-31 233 -9 699q-29 2 -67.5 38.5t-38.5 63.5zM768 729q66 25 133 98q88 93 92 193q2 33 -57 41q-49 8 -150 8q-14 -160 -18 -340z" />
<glyph unicode="&#xaf;" horiz-adv-x="823" d="M121 1823q0 51 2 57q6 29 37 29q86 0 257 5t255 5q28 0 28 -86q0 -113 -5 -120t-29 -7l-185 2q-53 0 -159.5 -4t-161.5 -4q-23 0 -27 5t-6 30z" />
<glyph unicode="&#xb4;" horiz-adv-x="845" d="M252 1702q0 4 6 12q39 55 96 154q23 61 47 123q23 37 105 34q12 -2 36.5 1.5t37.5 3.5q102 0 102 -31q0 -8 -111.5 -134t-128.5 -143q-25 -23 -67 -22q-18 0 -53 -4t-46 -4q-25 0 -24 10z" />
<glyph unicode="&#xb6;" horiz-adv-x="1089" d="M31 1130q0 156 105.5 252.5t283.5 96.5h614v-142h-100v-1337h-203v1337h-139v-1337h-203v784q-164 8 -261 103.5t-97 242.5z" />
<glyph unicode="&#xb7;" horiz-adv-x="628" d="M180 766q10 90 38 122t99 30q66 0 103 -35q45 -41 37 -117q-18 -156 -121 -143q-168 18 -156 143z" />
<glyph unicode="&#xb8;" horiz-adv-x="778" d="M215 -352q0 109 16 108q6 0 19 -18q23 -35 90 -35q35 0 68.5 17.5t33.5 50.5q0 27 -36 26q-20 0 -39 -12q-25 -16 -33 -21q-16 2 -45 42t-29 59q2 61 12 135h142q0 20 -6 -80q29 6 43 6q66 0 107.5 -51t41.5 -119q0 -84 -69.5 -139t-155.5 -55t-139 18q-4 2 -12.5 31 t-8.5 37z" />
<glyph unicode="&#xbb;" horiz-adv-x="872" d="M104 625q0 25 3.5 47t25.5 39q78 33 186 96q-16 16 -89.5 51t-88.5 45q-35 27 -35 107q0 88 23 88q-2 0 115.5 -65.5t134.5 -63.5q78 -29 78 -158q0 -145 -88 -176q-39 -14 -226 -107q-23 0 -32 39q-8 31 -7 58zM481 625q0 25 3 47t26 39q78 33 186 96q-16 16 -90 51 t-88 45q-35 27 -35 107q0 88 23 88q-2 0 115.5 -65.5t134.5 -63.5q78 -29 78 -158q0 -145 -89 -176q-39 -14 -225 -107q-23 0 -33 39q-8 31 -6 58z" />
<glyph unicode="&#xbf;" horiz-adv-x="1226" d="M135 227q43 209 195 379q90 98 268 228q143 102 156 141q6 20 6 43q0 63 -51 115q-41 43 -82 51q-14 2 -15 28q0 23 10.5 48.5t22.5 25.5q90 12 201 -31q147 -59 164 -190q10 -102 -52 -201q-49 -76 -151 -166q-88 -72 -174 -143q-254 -223 -254 -326q0 -51 53 -51 q78 0 202 90t179 195q10 20 47 20q51 0 111.5 -36.5t56.5 -71.5q-18 -121 -201 -269q-193 -156 -370 -161q-100 -2 -219 100t-103 182zM606 1565q16 154 119 141q168 -18 156 -141q-10 -92 -38 -123t-100 -31q-66 0 -102 35q-45 41 -35 119z" />
<glyph unicode="&#xc0;" horiz-adv-x="1355" d="M-20 520q0 47 100 66q2 2 137 16q115 360 229 651q127 326 177 361q86 57 227 74q57 6 76 -13q45 -41 219 -831q170 -764 170 -832q0 -27 -59.5 -43t-135.5 -16q-104 0 -137 31q-16 16 -78 329q-150 33 -262 37q-96 4 -197 -2q-74 -236 -92 -332q-12 -70 -143 -69 q-131 0 -143 53q-10 47 65 322q-16 0 -27 6q-37 20 -79 80q-47 68 -47 112zM496 2062q0 31 77 31q156 0 177 -10q29 -18 73 -154q25 -49 60 -145q4 -29 -45 -29q-18 0 -47 4t-27 4q-45 0 -70 23q-16 14 -107 142t-91 134zM539 621q188 2 313 -29q-49 260 -98 553 q-80 -139 -215 -524z" />
<glyph unicode="&#xc1;" horiz-adv-x="1355" d="M-20 520q0 47 100 66q2 2 137 16q115 360 229 651q127 326 177 361q86 57 227 74q57 6 76 -13q45 -41 219 -831q170 -764 170 -832q0 -27 -59.5 -43t-135.5 -16q-104 0 -137 31q-16 16 -78 329q-150 33 -262 37q-96 4 -197 -2q-74 -236 -92 -332q-12 -70 -143 -69 q-131 0 -143 53q-10 47 65 322q-16 0 -27 6q-37 20 -79 80q-47 68 -47 112zM539 621q188 2 313 -29q-49 260 -98 553q-80 -139 -215 -524zM721 1778q0 6 4 12q39 57 96 154q25 61 47 122q25 39 105 35q14 0 38.5 2t35.5 2q102 1 102 -30q0 -6 -110.5 -133t-129.5 -144 q-25 -23 -67 -22q-16 0 -51 -3.5t-48 -3.5q-23 0 -22 9z" />
<glyph unicode="&#xc2;" horiz-adv-x="1355" d="M-20 520q0 47 100 66q2 2 137 16q115 360 229 651q127 326 177 361q86 57 227 74q57 6 76 -13q45 -41 219 -831q170 -764 170 -832q0 -27 -59.5 -43t-135.5 -16q-104 0 -137 31q-16 16 -78 329q-150 33 -262 37q-96 4 -197 -2q-74 -236 -92 -332q-12 -70 -143 -69 q-131 0 -143 53q-10 47 65 322q-16 0 -27 6q-37 20 -79 80q-47 68 -47 112zM510 1755l64 118q65 118 65 132q27 80 158 80q145 0 176 -90q12 -38 106 -226q0 -20 -41 -32q-29 -6 -55 -6q-25 2 -48.5 4t-39.5 26q-33 78 -96 187q-16 -18 -51 -92t-46 -87q-27 -35 -104 -34 q-88 0 -88 20zM539 621q188 2 313 -29q-49 260 -98 553q-80 -139 -215 -524z" />
<glyph unicode="&#xc3;" horiz-adv-x="1355" d="M-20 520q0 47 100 66q2 2 137 16q115 360 229 651q127 326 177 361q86 57 227 74q57 6 76 -13q45 -41 219 -831q170 -764 170 -832q0 -27 -59.5 -43t-135.5 -16q-104 0 -137 31q-16 16 -78 329q-150 33 -262 37q-96 4 -197 -2q-74 -236 -92 -332q-12 -70 -143 -69 q-131 0 -143 53q-10 47 65 322q-16 0 -27 6q-37 20 -79 80q-47 68 -47 112zM518 1874q0 78 38 130t114 52q57 0 127.5 -42t85.5 -42q43 0 53 82q2 16 59 17q61 0 64 -3q37 -5 37 -38q0 -272 -164 -273q-53 0 -118.5 43t-88.5 43q-27 0 -27 -33q0 -6 3.5 -16t3.5 -16 q0 -23 -107 -23q-63 0 -76 29q-4 10 -4 90zM539 621q188 2 313 -29q-49 260 -98 553q-80 -139 -215 -524z" />
<glyph unicode="&#xc4;" horiz-adv-x="1355" d="M-20 520q0 47 100 66q2 2 137 16q115 360 229 651q127 326 177 361q86 57 227 74q57 6 76 -13q45 -41 219 -831q170 -764 170 -832q0 -27 -59.5 -43t-135.5 -16q-104 0 -137 31q-16 16 -78 329q-150 33 -262 37q-96 4 -197 -2q-74 -236 -92 -332q-12 -70 -143 -69 q-131 0 -143 53q-10 47 65 322q-16 0 -27 6q-37 20 -79 80q-47 68 -47 112zM489 1982q0 41 15 64q29 39 149 39h49q25 -6 35 -31q27 -56 27 -158q0 -72 -51 -98q-35 -18 -117 -18q-96 0 -96 63q2 25 -4.5 72t-6.5 67zM539 621q188 2 313 -29q-49 260 -98 553 q-80 -139 -215 -524zM860 2011q0 43 32 60.5t165 17.5q73 0 73 -176q0 -80 -47 -109q-35 -23 -120 -22q-104 0 -99 61q4 23 4 47q0 29 -4 69t-4 52z" />
<glyph unicode="&#xc5;" horiz-adv-x="1355" d="M-20 520q0 47 100 66q2 2 137 16q115 360 229 651q127 326 177 361q86 57 227 74q57 6 76 -13q45 -41 219 -831q170 -764 170 -832q0 -27 -59.5 -43t-135.5 -16q-104 0 -137 31q-16 16 -78 329q-150 33 -262 37q-96 4 -197 -2q-74 -236 -92 -332q-12 -70 -143 -69 q-131 0 -143 53q-10 47 65 322q-16 0 -27 6q-37 20 -79 80q-47 68 -47 112zM539 621q188 2 313 -29q-49 260 -98 553q-80 -139 -215 -524zM625 1948q0 72 56 120t126 48q109 0 156 -48q41 -43 43 -137q2 -68 -56.5 -108.5t-132.5 -40.5q-76 0 -131 43q-61 49 -61 123z M735 1948q0 -29 25.5 -47.5t56.5 -18.5q72 0 72 66q0 63 -66 63q-33 0 -57 -14q-31 -18 -31 -49z" />
<glyph unicode="&#xc6;" horiz-adv-x="1982" d="M41 0q0 47 143 322q-18 0 -26 6q-27 16 -54.5 69.5t-27.5 100.5q0 61 57 73q80 16 203 31q201 360 383 651q205 326 262 361q100 57 246 74q59 6 73 -13q6 -8 13 -57q256 18 413 -2q51 -6 109.5 -63.5t58.5 -108.5q0 -41 -51 -43q-115 -6 -268 -27q-188 -27 -250 -55 l-2 -12v-344q135 0 401 94q23 8 37 -33q12 -31 13 -59q0 -84 -68 -123q-147 -88 -389 -137q0 -29 -4 -138q-2 -84 -2 -129q0 -6 6 -174q131 12 315 86q158 63 260 131q14 10 27.5 -21.5t13.5 -49.5q0 -41 -28 -72q-135 -141 -310 -244q-160 -94 -278 -112q-23 -4 -55 2 q-61 -31 -179 -31q-104 0 -131 31q-12 16 0 329q-141 33 -252 37q-94 4 -196 -2q-131 -236 -172 -332q-29 -70 -160 -69q-131 0 -131 53zM659 621q188 2 308 -29q14 260 32 553q-113 -139 -340 -524z" />
<glyph unicode="&#xc7;" horiz-adv-x="1150" d="M63 717q0 55 7 110q31 346 208 600t394 254q168 0 262 -151q80 -131 80 -328q0 -74 -15 -145q-8 -47 -125 -47q-59 0 -135 18q-104 29 -90 74q68 201 68 303q0 63 -33 65q-121 6 -227 -307q-90 -264 -90 -415q0 -190 69 -332q74 -150 189 -160q117 -10 231 96 q98 94 137 209q6 18 41 12q68 -10 68 -67q0 -11 -4 -21q-53 -211 -180 -356q-133 -152 -302 -174q0 -18 -4 -55q29 6 43 6q66 0 108 -51.5t42 -118.5q0 -84 -69.5 -139.5t-155.5 -55.5t-140 19q-4 2 -12 30.5t-8 36.5q0 109 16 109q6 0 19 -19q23 -35 90 -34q35 0 68.5 17 t33.5 50q0 27 -37 27q-20 0 -39 -13q-25 -16 -32 -20q-16 2 -45 42t-29 58q2 51 10 117q-166 43 -285 246q-127 217 -127 510z" />
<glyph unicode="&#xc8;" horiz-adv-x="1081" d="M-20 907q0 35 14 45q27 16 92 9q10 393 76 571q14 41 98 61q262 63 582 23q51 -6 109.5 -63.5t58.5 -108.5q0 -41 -52 -43q-117 -6 -268 -27q-188 -27 -250 -55q-12 -135 -18 -354q137 -8 418 92q23 8 37 -33q12 -31 12 -59q0 -84 -68 -123q-156 -94 -401 -142 q0 -109 12 -436q131 12 316 86q158 63 260 131q8 6 22 -12q20 -27 21 -82q0 -53 -27 -82q-129 -135 -311 -227q-150 -76 -281 -96q-61 -10 -165.5 47t-114.5 98q-55 219 -64 573q-55 20 -86 93q-23 57 -22 114zM293 2009q0 33 80 33q156 0 174 -12q31 -16 74 -154 q26 -47 59 -145q6 -29 -45 -29q-18 0 -46 4l-28 4q-45 0 -69 23q-14 14 -106.5 142t-92.5 134z" />
<glyph unicode="&#xc9;" horiz-adv-x="1081" d="M-20 907q0 35 14 45q27 16 92 9q10 393 76 571q14 41 98 61q262 63 582 23q51 -6 109.5 -63.5t58.5 -108.5q0 -41 -52 -43q-117 -6 -268 -27q-188 -27 -250 -55q-12 -135 -18 -354q137 -8 418 92q23 8 37 -33q12 -31 12 -59q0 -84 -68 -123q-156 -94 -401 -142 q0 -109 12 -436q131 12 316 86q158 63 260 131q8 6 22 -12q20 -27 21 -82q0 -53 -27 -82q-129 -135 -311 -227q-150 -76 -281 -96q-61 -10 -165.5 47t-114.5 98q-55 219 -64 573q-55 20 -86 93q-23 57 -22 114zM467 1726q0 6 4 13q39 57 96 153q25 61 47 123q25 39 105 35 q14 0 38.5 2t35.5 2q102 0 102 -31q0 -6 -110.5 -133t-129.5 -143q-23 -23 -67 -23q-16 0 -51 -3t-48 -3q-23 0 -22 8z" />
<glyph unicode="&#xca;" horiz-adv-x="1081" d="M-20 907q0 35 14 45q27 16 92 9q10 393 76 571q14 41 98 61q262 63 582 23q51 -6 109.5 -63.5t58.5 -108.5q0 -41 -52 -43q-117 -6 -268 -27q-188 -27 -250 -55q-12 -135 -18 -354q137 -8 418 92q23 8 37 -33q12 -31 12 -59q0 -84 -68 -123q-156 -94 -401 -142 q0 -109 12 -436q131 12 316 86q158 63 260 131q8 6 22 -12q20 -27 21 -82q0 -53 -27 -82q-129 -135 -311 -227q-150 -76 -281 -96q-61 -10 -165.5 47t-114.5 98q-55 219 -64 573q-55 20 -86 93q-23 57 -22 114zM297 1731q0 -2 64.5 116.5t64.5 132.5q27 78 158 78 q145 0 176 -88q12 -39 106 -225q0 -23 -39 -33q-31 -8 -57 -6q-25 0 -47.5 3t-40.5 26q-31 78 -96 186q-14 -16 -50 -90t-47 -88q-25 -33 -104 -33q-88 0 -88 21z" />
<glyph unicode="&#xcb;" horiz-adv-x="1081" d="M-20 907q0 35 14 45q27 16 92 9q10 393 76 571q14 41 98 61q262 63 582 23q51 -6 109.5 -63.5t58.5 -108.5q0 -41 -52 -43q-117 -6 -268 -27q-188 -27 -250 -55q-12 -135 -18 -354q137 -8 418 92q23 8 37 -33q12 -31 12 -59q0 -84 -68 -123q-156 -94 -401 -142 q0 -109 12 -436q131 12 316 86q158 63 260 131q8 6 22 -12q20 -27 21 -82q0 -53 -27 -82q-129 -135 -311 -227q-150 -76 -281 -96q-61 -10 -165.5 47t-114.5 98q-55 219 -64 573q-55 20 -86 93q-23 57 -22 114zM270 1913q0 39 15 61q29 41 149 41q43 0 49 -2q25 -4 37 -28 q27 -56 27 -158q0 -74 -53 -98q-35 -18 -115 -19q-98 0 -96 64q0 23 -6.5 70.5t-6.5 68.5zM641 1942q0 43 32 59t165 16q75 0 75 -174q0 -82 -49 -110q-35 -20 -119 -21q-106 0 -98 62q2 23 2 47q0 27 -4 67.5t-4 53.5z" />
<glyph unicode="&#xcc;" horiz-adv-x="538" d="M-12 1999q0 31 80 31q156 0 176 -11q29 -18 71 -153q27 -50 62 -146q4 -31 -45 -30q-20 0 -48 5l-28 5q-43 0 -70 22q-14 14 -106 141.5t-92 135.5zM90 821q-4 483 76 711q16 49 84 45q78 -4 141 -61q68 -63 58 -146q-25 -240 -25 -557q0 -577 29 -782q4 -23 -68 -39 q-57 -14 -98 -15q-98 0 -111 52q-82 301 -86 792z" />
<glyph unicode="&#xcd;" horiz-adv-x="538" d="M90 821q-4 483 76 711q16 49 84 45q78 -4 141 -61q68 -63 58 -146q-25 -240 -25 -557q0 -577 29 -782q4 -23 -68 -39q-57 -14 -98 -15q-98 0 -111 52q-82 301 -86 792zM223 1702q0 4 6 12q39 55 97 154q23 61 47 123q23 37 104 34q12 -2 37 1.5t37 3.5q102 0 102 -31 q0 -8 -111.5 -134t-127.5 -143q-25 -23 -68 -22q-18 0 -53 -4t-45 -4q-25 0 -25 10z" />
<glyph unicode="&#xce;" horiz-adv-x="538" d="M29 1692l65 118q64 117 64 132q27 80 157 79q145 0 177 -90q12 -39 106 -225q0 -23 -39 -33q-31 -8 -57 -6q-25 2 -47.5 4t-40.5 27q-31 78 -97 186q-14 -18 -50 -92t-46 -86q-25 -35 -104 -35q-88 0 -88 21zM90 821q-4 483 76 711q16 49 84 45q78 -4 141 -61 q68 -63 58 -146q-25 -240 -25 -557q0 -577 29 -782q4 -23 -68 -39q-57 -14 -98 -15q-98 0 -111 52q-82 301 -86 792z" />
<glyph unicode="&#xcf;" horiz-adv-x="538" d="M-23 1888q0 41 17 64q29 41 149 41q43 0 50 -2q23 -4 34 -31q27 -56 27 -158q0 -72 -51 -98q-35 -18 -117 -18q-96 0 -96 63q0 25 -6.5 72t-6.5 67zM90 821q-4 483 76 711q16 49 84 45q78 -4 141 -61q68 -63 58 -146q-25 -240 -25 -557q0 -577 29 -782q4 -23 -68 -39 q-57 -14 -98 -15q-98 0 -111 52q-82 301 -86 792zM348 1917q0 43 33 60.5t164 17.5q76 0 76 -174q0 -82 -48 -111q-35 -23 -120 -22q-104 0 -99 61q2 25 2 47q0 29 -4 69t-4 52z" />
<glyph unicode="&#xd0;" horiz-adv-x="1275" d="M-14 1456q-10 35 12 45q233 117 522 121q439 6 584 -182q119 -156 119 -432q0 -250 -95 -488q-98 -248 -249 -358q-131 -98 -304 -127q0 -37 -114 -53q-27 -4 -51 -5q-98 0 -113 52q-66 250 -82 676l-113 4q-37 0 -67 57q-29 51 -29 106q0 78 62 70q63 -10 145 -6 q4 176 20 326q-43 -8 -61 0q-37 16 -100 79q-72 70 -86 115zM547 698q2 -201 6 -356q33 8 139 66q129 82 207 284q68 178 68 365q0 150 -49.5 222.5t-186.5 72.5q-47 0 -162 -13q-14 -150 -20 -370q100 6 172 -6q29 -6 49.5 -57.5t20.5 -108.5q0 -100 -56 -101q-92 0 -188 2 z" />
<glyph unicode="&#xd1;" horiz-adv-x="1294" d="M96 389q0 625 49 1090q8 74 70 118q55 41 133 41q68 0 80 -28q23 -49 418 -951q-10 127 -10 285q0 416 45 698q8 49 49 54q59 4 151 -53.5t84 -106.5q-66 -377 -108 -1569q-2 -31 -41 -35q-47 -6 -121 24t-86 58q-18 45 -397 842q-49 -328 -50 -627q0 -141 11 -266 q2 -18 -15.5 -31.5t-44.5 -7.5q-55 14 -127 76q-84 74 -86 137q-4 106 -4 252zM379 1843q0 80 35 127q41 55 116 55q57 0 127 -41.5t86 -41.5q43 0 54 81q0 16 59 17h64q36 -6 36 -41q0 -272 -163 -273q-53 0 -120 43t-87 43q-27 0 -27 -32q0 -6 3 -16.5t3 -16.5 q0 -23 -106 -23q-63 0 -76 31q-4 10 -4 88z" />
<glyph unicode="&#xd2;" d="M43 862q4 307 141 545q106 184 232 248q25 12 51 12q23 0 100 -43q41 29 142 74q55 14 104 -6q125 -51 201 -230q96 -227 84 -618q-12 -414 -180 -660q-156 -227 -377 -225q-209 2 -354.5 260t-143.5 643zM299 2052q0 31 80 31q156 0 174 -10q31 -18 74 -154 q26 -49 59 -145q6 -29 -43 -29q-20 0 -48 4l-28 4q-45 0 -69 23q-14 14 -106.5 142t-92.5 134zM340 825q-8 -254 72 -432q72 -158 153 -155q88 2 158 137q84 165 86 450q2 270 -70 435q-61 143 -143 143q-76 0 -156 -152q-92 -176 -100 -426z" />
<glyph unicode="&#xd3;" d="M43 862q4 307 141 545q106 184 232 248q25 12 51 12q23 0 100 -43q41 29 142 74q55 14 104 -6q125 -51 201 -230q96 -227 84 -618q-12 -414 -180 -660q-156 -227 -377 -225q-209 2 -354.5 260t-143.5 643zM340 825q-8 -254 72 -432q72 -158 153 -155q88 2 158 137 q84 165 86 450q2 270 -70 435q-61 143 -143 143q-76 0 -156 -152q-92 -176 -100 -426zM471 1761q0 6 6 13q39 57 96 153q23 61 48 123q23 39 104 35q12 0 36.5 2t37.5 2q102 0 102 -31q0 -6 -111.5 -133t-127.5 -143q-25 -23 -68 -23q-18 0 -53 -3t-45 -3q-25 0 -25 8z" />
<glyph unicode="&#xd4;" d="M43 862q4 307 141 545q106 184 232 248q25 12 51 12q23 0 100 -43q41 29 142 74q55 14 104 -6q125 -51 201 -230q96 -227 84 -618q-12 -414 -180 -660q-156 -227 -377 -225q-209 2 -354.5 260t-143.5 643zM311 1769q0 -2 65.5 117t63.5 133q29 78 158 78q145 0 176 -88 q15 -39 107 -225q0 -23 -39 -33q-31 -8 -58 -6q-25 0 -47 3t-39 26q-33 78 -96 186q-16 -16 -51 -90t-45 -88q-27 -33 -105 -33q-90 0 -90 20zM340 825q-8 -254 72 -432q72 -158 153 -155q88 2 158 137q84 165 86 450q2 270 -70 435q-61 143 -143 143q-76 0 -156 -152 q-92 -176 -100 -426z" />
<glyph unicode="&#xd5;" d="M43 862q4 307 141 545q106 184 232 248q25 12 51 12q23 0 100 -43q41 29 142 74q55 14 104 -6q125 -51 201 -230q96 -227 84 -618q-12 -414 -180 -660q-156 -227 -377 -225q-209 2 -354.5 260t-143.5 643zM307 1858q0 78 38 130t114 52q57 0 127.5 -42t85.5 -42 q45 0 53 82q2 16 59 16h66q35 -8 35 -41q0 -272 -164 -272q-51 0 -117.5 43t-89.5 43q-27 0 -27 -33q0 -6 3.5 -16.5t3.5 -16.5q0 -23 -107 -22q-63 0 -76 28q-4 10 -4 91zM340 825q-8 -254 72 -432q72 -158 153 -155q88 2 158 137q84 165 86 450q2 270 -70 435 q-61 143 -143 143q-76 0 -156 -152q-92 -176 -100 -426z" />
<glyph unicode="&#xd6;" d="M43 862q4 307 141 545q106 184 232 248q25 12 51 12q23 0 100 -43q41 29 142 74q55 14 104 -6q125 -51 201 -230q96 -227 84 -618q-12 -414 -180 -660q-156 -227 -377 -225q-209 2 -354.5 260t-143.5 643zM291 1954q0 39 16 61q29 41 150 41q43 0 49 -2q23 -4 35 -29 q26 -55 26 -157q0 -74 -51 -99q-35 -18 -117 -18q-98 0 -96 64q0 23 -6 70.5t-6 68.5zM340 825q-8 -254 72 -432q72 -158 153 -155q88 2 158 137q84 165 86 450q2 270 -70 435q-61 143 -143 143q-76 0 -156 -152q-92 -176 -100 -426zM662 1982q0 43 31.5 59.5t164.5 16.5 q76 0 76 -174q0 -82 -47 -110q-37 -20 -121 -21q-104 0 -98 62q2 23 2 47q0 29 -4 68.5t-4 51.5z" />
<glyph unicode="&#xd8;" d="M29 39q0 18 18.5 44t114.5 183q-121 250 -119 596q4 307 141 545q106 184 232 248q25 12 51 12q23 0 100 -43q41 29 142 74q131 37 245 -127q47 76 54 86q31 39 98 39q49 0 49 -31q0 -15 -14 -33q-45 -68 -119 -188q88 -225 76 -600q-12 -414 -180 -660 q-156 -227 -377 -225q-172 2 -305 184l-80 -133q-20 -31 -58 -30q-70 0 -69 59zM340 825q-4 -129 16 -243l394 653q-63 168 -154 168q-76 0 -156 -152q-92 -176 -100 -426zM399 420q74 -184 166 -182q88 2 158 137q84 165 86 450q2 133 -16 246q-162 -266 -394 -651z" />
<glyph unicode="&#xd9;" horiz-adv-x="1202" d="M76 926q-10 608 45 655q37 31 158 31q94 0 122 -25q12 -8 15 -188q0 -125 -2 -344q-4 -233 -4 -228q0 -238 49 -397q53 -178 145 -180q86 -2 146 180q47 150 63 375q6 92 12 508q4 291 31 318.5t95.5 52t119.5 24.5q39 0 51 -16q25 -35 25 -322q-1 -229 -19 -524 q-25 -385 -106 -576q-129 -295 -428 -290q-506 8 -518 946zM301 2030q0 31 80 30q156 0 174 -12q31 -16 74 -152q26 -49 59 -145q6 -31 -43 -31q-20 0 -48 6l-28 5q-45 0 -69 22q-14 14 -106.5 141t-92.5 136z" />
<glyph unicode="&#xda;" horiz-adv-x="1202" d="M76 926q-10 608 45 655q37 31 158 31q94 0 122 -25q12 -8 15 -188q0 -125 -2 -344q-4 -233 -4 -228q0 -238 49 -397q53 -178 145 -180q86 -2 146 180q47 150 63 375q6 92 12 508q4 291 31 318.5t95.5 52t119.5 24.5q39 0 51 -16q25 -35 25 -322q-1 -229 -19 -524 q-25 -385 -106 -576q-129 -295 -428 -290q-506 8 -518 946zM518 1714q0 4 6 10q39 57 97 154q23 61 47 123q23 39 104 35q12 0 37 2t37 2q102 0 102 -31q0 -6 -111.5 -133t-127.5 -143q-25 -23 -68 -23q-18 0 -52 -3t-46 -3q-25 0 -25 10z" />
<glyph unicode="&#xdb;" horiz-adv-x="1202" d="M76 926q-10 608 45 655q37 31 158 31q94 0 122 -25q12 -8 15 -188q0 -125 -2 -344q-4 -233 -4 -228q0 -238 49 -397q53 -178 145 -180q86 -2 146 180q47 150 63 375q6 92 12 508q4 291 31 318.5t95.5 52t119.5 24.5q39 0 51 -16q25 -35 25 -322q-1 -229 -19 -524 q-25 -385 -106 -576q-129 -295 -428 -290q-506 8 -518 946zM322 1735l64 117q65 118 65 133q27 80 157 79q145 0 176 -90q15 -37 107 -225q0 -20 -39 -33q-31 -8 -57 -6q-25 2 -47.5 4t-38.5 27q-33 78 -97 186q-16 -18 -52 -92t-44 -86q-27 -35 -106 -35q-88 0 -88 21z" />
<glyph unicode="&#xdc;" horiz-adv-x="1202" d="M76 926q-10 608 45 655q37 31 158 31q94 0 122 -25q12 -8 15 -188q0 -125 -2 -344q-4 -233 -4 -228q0 -238 49 -397q53 -178 145 -180q86 -2 146 180q47 150 63 375q6 92 12 508q4 291 31 318.5t95.5 52t119.5 24.5q39 0 51 -16q25 -35 25 -322q-1 -229 -19 -524 q-25 -385 -106 -576q-129 -295 -428 -290q-506 8 -518 946zM291 1942q0 39 16 61q29 41 150 41q43 0 49 -2q23 -4 35 -29q26 -58 26 -158q0 -74 -51 -98q-35 -18 -117 -18q-98 0 -96 63q0 23 -6 70t-6 70zM662 1970q0 41 31.5 58.5t164.5 17.5q76 0 76 -174q0 -82 -47 -111 q-37 -20 -121 -20q-104 0 -98 61q2 23 2 47q0 27 -4 68t-4 53z" />
<glyph unicode="&#xdd;" horiz-adv-x="1099" d="M-2 1518q14 41 92 85t141 52q51 6 54 -21q10 -109 127 -389q96 -233 137 -305q63 184 115 324q121 330 159 370q6 8 37 8q53 0 121 -18q76 -20 92 -45q18 -27 -147 -455q-109 -270 -217 -542q-14 -342 14 -551q4 -23 -70 -41q-57 -12 -100 -13q-117 0 -129 52 q-59 221 -66 561q-80 150 -221 497q-158 385 -139 431zM451 1726q0 6 4 13q39 57 96 153q25 61 47 123q25 39 104 35q14 0 39 2t35 2q103 0 103 -31q0 -6 -111 -133t-129 -143q-23 -23 -68 -23q-16 0 -51 -3t-47 -3q-23 0 -22 8z" />
<glyph unicode="&#xdf;" horiz-adv-x="1052" d="M-63 -469q70 186 100 535q18 195 31 628q10 387 30 535q31 244 226 360q143 84 301 78q117 -6 241 -108q117 -95 154 -189q25 -63 24 -131q0 -141 -99 -265t-249 -175q98 -31 181 -103q121 -109 120 -264q0 -23 -2 -43q-18 -174 -114 -278q-92 -96 -228 -105 q-113 -6 -161 25q-18 14 -19 55q0 39 16.5 75t38.5 36q43 -4 84 45t58 127q10 47 10 86q0 190 -219 204q-43 2 -37 152q8 162 63 162q102 0 195 135q86 127 86 242q0 53 -24.5 77.5t-79.5 24.5q-82 0 -154 -47q-84 -53 -96 -137q-29 -199 -47 -598q-23 -446 -41 -619 q-35 -330 -113 -518q-14 -37 -115 -51q-45 -6 -98 0q-78 10 -63 49z" />
<glyph unicode="&#xe0;" horiz-adv-x="1355" d="M-29 520q0 47 101 66q2 2 137 16q328 1030 414 1073q27 14 53 15q31 0 91 -26t93 -22q57 6 76 -10q43 -41 209 -796q158 -727 158 -795q0 -49 -162 -57q-131 -8 -170 28q-18 18 -76 301q-147 33 -262 37q-94 4 -195 -2q-74 -236 -92 -332q-12 -70 -143 -69 q-131 0 -144 53q-12 47 66 322q-18 0 -29 6q-35 20 -78 80q-47 68 -47 112zM469 2068q0 31 80 31q156 0 174 -10q31 -18 74 -154q26 -49 59 -145q6 -29 -43 -29q-20 0 -48 4l-28 4q-45 0 -69 23q-14 14 -106.5 142t-92.5 134zM530 621q187 2 314 -29q-49 260 -101 553 q-78 -139 -213 -524z" />
<glyph unicode="&#xe1;" horiz-adv-x="1355" d="M-29 520q0 47 101 66q2 2 137 16q328 1030 414 1073q27 14 53 15q31 0 91 -26t93 -22q57 6 76 -10q43 -41 209 -796q158 -727 158 -795q0 -49 -162 -57q-131 -8 -170 28q-18 18 -76 301q-147 33 -262 37q-94 4 -195 -2q-74 -236 -92 -332q-12 -70 -143 -69 q-131 0 -144 53q-12 47 66 322q-18 0 -29 6q-35 20 -78 80q-47 68 -47 112zM530 621q187 2 314 -29q-49 260 -101 553q-78 -139 -213 -524zM721 1759q0 4 4 13q39 55 96 153q25 61 47 123q25 37 105 35q14 0 38.5 2t35.5 2q102 0 102 -31q0 -6 -113 -137 q-109 -123 -127 -139q-25 -23 -67 -23q-16 0 -51 -4t-48 -4q-23 0 -22 10z" />
<glyph unicode="&#xe2;" horiz-adv-x="1355" d="M-29 520q0 47 101 66q2 2 137 16q328 1030 414 1073q27 14 53 15q31 0 91 -26t93 -22q57 6 76 -10q43 -41 209 -796q158 -727 158 -795q0 -49 -162 -57q-131 -8 -170 28q-18 18 -76 301q-147 33 -262 37q-94 4 -195 -2q-74 -236 -92 -332q-12 -70 -143 -69 q-131 0 -144 53q-12 47 66 322q-18 0 -29 6q-35 20 -78 80q-47 68 -47 112zM516 1755l64 118q65 118 65 132q27 80 158 80q145 0 176 -90q12 -38 106 -226q0 -20 -38 -32q-31 -6 -58 -6q-25 2 -48 4t-40 26q-33 78 -96 187q-14 -18 -50 -92t-46 -87q-25 -35 -105 -34 q-88 0 -88 20zM530 621q187 2 314 -29q-49 260 -101 553q-78 -139 -213 -524z" />
<glyph unicode="&#xe3;" horiz-adv-x="1355" d="M-29 520q0 47 101 66q2 2 137 16q328 1030 414 1073q27 14 53 15q31 0 91 -26t93 -22q57 6 76 -10q43 -41 209 -796q158 -727 158 -795q0 -49 -162 -57q-131 -8 -170 28q-18 18 -76 301q-147 33 -262 37q-94 4 -195 -2q-74 -236 -92 -332q-12 -70 -143 -69 q-131 0 -144 53q-12 47 66 322q-18 0 -29 6q-35 20 -78 80q-47 68 -47 112zM518 1862q0 78 38 130t114 52q57 0 127.5 -42t85.5 -42q43 0 53 82q2 16 59 16q61 0 64 -2q37 -6 37 -39q0 -272 -164 -272q-53 0 -118.5 43t-88.5 43q-27 0 -27 -33q0 -6 3.5 -17.5t3.5 -15.5 q0 -23 -107 -22q-63 0 -76 29q-4 10 -4 90zM530 621q187 2 314 -29q-49 260 -101 553q-78 -139 -213 -524z" />
<glyph unicode="&#xe4;" horiz-adv-x="1355" d="M-29 520q0 47 101 66q2 2 137 16q328 1030 414 1073q27 14 53 15q31 0 91 -26t93 -22q57 6 76 -10q43 -41 209 -796q158 -727 158 -795q0 -49 -162 -57q-131 -8 -170 28q-18 18 -76 301q-147 33 -262 37q-94 4 -195 -2q-74 -236 -92 -332q-12 -70 -143 -69 q-131 0 -144 53q-12 47 66 322q-18 0 -29 6q-35 20 -78 80q-47 68 -47 112zM481 1958q0 39 17 61q29 41 149 41q43 0 49 -2q25 -4 35 -28q27 -58 27 -158q0 -74 -51 -100q-35 -16 -117 -17q-96 0 -96 64q0 23 -6.5 69.5t-6.5 69.5zM530 621q187 2 314 -29q-49 260 -101 553 q-78 -139 -213 -524zM854 1987q0 41 32 58t165 17q73 0 73 -174q0 -82 -47 -110q-35 -20 -121 -21q-104 0 -98 62q2 23 2 47q0 27 -3 67.5t-3 53.5z" />
<glyph unicode="&#xe5;" horiz-adv-x="1355" d="M-29 520q0 47 101 66q2 2 137 16q328 1030 414 1073q27 14 53 15q31 0 91 -26t93 -22q57 6 76 -10q43 -41 209 -796q158 -727 158 -795q0 -49 -162 -57q-131 -8 -170 28q-18 18 -76 301q-147 33 -262 37q-94 4 -195 -2q-74 -236 -92 -332q-12 -70 -143 -69 q-131 0 -144 53q-12 47 66 322q-18 0 -29 6q-35 20 -78 80q-47 68 -47 112zM530 621q187 2 314 -29q-49 260 -101 553q-78 -139 -213 -524zM616 1935q0 72 57.5 119t127.5 47q109 0 152.5 -44t45.5 -138q2 -68 -56 -109t-132 -41q-76 0 -131 43q-63 49 -64 123zM729 1933 q0 -29 25.5 -47t56.5 -18q72 -1 72 65t-66 66q-33 0 -60.5 -17.5t-27.5 -48.5z" />
<glyph unicode="&#xe6;" horiz-adv-x="1982" d="M41 0q0 47 143 322q-18 0 -26 6q-27 16 -54.5 69.5t-27.5 100.5q0 61 57 73q80 16 203 31q201 360 383 651q205 326 262 361q100 57 246 74q59 6 73 -13q6 -8 13 -57q256 18 413 -2q51 -6 109.5 -63.5t58.5 -108.5q0 -41 -51 -43q-115 -6 -268 -27q-188 -27 -250 -55 l-2 -12v-344q135 0 401 94q23 8 37 -33q12 -31 13 -59q0 -84 -68 -123q-147 -88 -389 -137q0 -29 -4 -138q-2 -84 -2 -129q0 -6 6 -174q131 12 315 86q158 63 260 131q14 10 27.5 -21.5t13.5 -49.5q0 -41 -28 -72q-135 -141 -310 -244q-160 -94 -278 -112q-23 -4 -55 2 q-61 -31 -179 -31q-104 0 -131 31q-12 16 0 329q-141 33 -252 37q-94 4 -196 -2q-131 -236 -172 -332q-29 -70 -160 -69q-131 0 -131 53zM659 621q188 2 308 -29q14 260 32 553q-113 -139 -340 -524z" />
<glyph unicode="&#xe7;" horiz-adv-x="1150" d="M66 721q0 53 4 106q29 338 206 607q164 244 328 264q78 10 214 -59.5t169 -145.5q35 -84 35 -215q0 -102 -23 -221q-8 -47 -125 -47q-59 0 -135 18q-104 29 -90 74q84 250 84 325q0 53 -31 60q-121 20 -237 -311q-98 -283 -98 -428q0 -190 69 -332q74 -150 189 -160 q117 -10 231 96q98 94 137 209q6 18 41 12q68 -10 68 -67q0 -11 -4 -21q-53 -217 -189 -364q-139 -154 -311 -168q-2 -20 -6 -62q29 6 43 7q66 0 107.5 -51.5t41.5 -118.5q0 -84 -69.5 -139.5t-155.5 -55.5t-139 18q-4 2 -12.5 31t-8.5 37q0 109 17 109q6 0 18 -19 q23 -35 90 -35q35 0 69 17.5t34 50.5q0 27 -37 27q-20 0 -39 -13q-25 -16 -33 -20q-16 2 -45 42t-29 58q2 59 13 131q-160 53 -273 254q-119 215 -118 500z" />
<glyph unicode="&#xe8;" horiz-adv-x="1081" d="M70 821q-4 496 75 711q16 41 101 61q262 63 581 23q51 -6 108.5 -63.5t57.5 -108.5q0 -41 -51 -43q-115 -6 -268 -27q-186 -27 -250 -55q-10 -119 -14 -313q236 -12 413 51q23 8 39 -33q10 -31 10 -59q0 -84 -65 -123q-158 -94 -404 -142q0 -109 15 -436q129 12 313 86 q160 63 260 131q11 6 25 -12q18 -25 18 -78q0 -55 -28 -86q-131 -137 -310 -229q-156 -82 -278 -94q-63 -8 -168 48t-115 97q-61 244 -65 694zM264 2017q0 31 78 31q156 0 176 -10q29 -16 74 -154q24 -49 59 -145q4 -29 -45 -29q-18 0 -47 4t-27 4q-45 0 -69 23 q-16 14 -107.5 142t-91.5 134z" />
<glyph unicode="&#xe9;" horiz-adv-x="1081" d="M70 821q-4 496 75 711q16 41 101 61q262 63 581 23q51 -6 108.5 -63.5t57.5 -108.5q0 -41 -51 -43q-115 -6 -268 -27q-186 -27 -250 -55q-10 -119 -14 -313q236 -12 413 51q23 8 39 -33q10 -31 10 -59q0 -84 -65 -123q-158 -94 -404 -142q0 -109 15 -436q129 12 313 86 q160 63 260 131q11 6 25 -12q18 -25 18 -78q0 -55 -28 -86q-131 -137 -310 -229q-156 -82 -278 -94q-63 -8 -168 48t-115 97q-61 244 -65 694zM451 1726q0 6 4 13q39 57 96 153q25 61 47 123q25 39 104 35q14 0 39 2t35 2q103 0 103 -31q0 -6 -111 -133t-129 -143 q-23 -23 -68 -23q-16 0 -51 -3t-47 -3q-23 0 -22 8z" />
<glyph unicode="&#xea;" horiz-adv-x="1081" d="M70 821q-4 496 75 711q16 41 101 61q262 63 581 23q51 -6 108.5 -63.5t57.5 -108.5q0 -41 -51 -43q-115 -6 -268 -27q-186 -27 -250 -55q-10 -119 -14 -313q236 -12 413 51q23 8 39 -33q10 -31 10 -59q0 -84 -65 -123q-158 -94 -404 -142q0 -109 15 -436q129 12 313 86 q160 63 260 131q11 6 25 -12q18 -25 18 -78q0 -55 -28 -86q-131 -137 -310 -229q-156 -82 -278 -94q-63 -8 -168 48t-115 97q-61 244 -65 694zM297 1731q0 -2 64.5 116.5t64.5 132.5q27 78 158 78q145 0 176 -88q12 -39 106 -225q0 -23 -39 -33q-31 -8 -57 -6q-25 0 -47.5 3 t-40.5 26q-31 78 -96 186q-14 -16 -50 -90t-47 -88q-25 -33 -104 -33q-88 0 -88 21z" />
<glyph unicode="&#xeb;" horiz-adv-x="1081" d="M70 821q-4 496 75 711q16 41 101 61q262 63 581 23q51 -6 108.5 -63.5t57.5 -108.5q0 -41 -51 -43q-115 -6 -268 -27q-186 -27 -250 -55q-10 -119 -14 -313q236 -12 413 51q23 8 39 -33q10 -31 10 -59q0 -84 -65 -123q-158 -94 -404 -142q0 -109 15 -436q129 12 313 86 q160 63 260 131q11 6 25 -12q18 -25 18 -78q0 -55 -28 -86q-131 -137 -310 -229q-156 -82 -278 -94q-63 -8 -168 48t-115 97q-61 244 -65 694zM244 1907q0 39 16 61q29 41 150 41q43 0 49 -2q23 -4 35 -29q26 -57 26 -157q0 -74 -51 -99q-35 -18 -117 -18q-98 0 -96 63 q0 23 -6 70t-6 70zM614 1935q0 41 32 58.5t165 17.5q76 0 76 -174q0 -82 -47 -111q-37 -20 -121 -20q-104 0 -98 61q2 23 2 48q0 27 -4.5 67.5t-4.5 52.5z" />
<glyph unicode="&#xec;" horiz-adv-x="538" d="M2 2005q0 31 78 31q156 0 176 -11q29 -18 74 -153q24 -50 59 -146q4 -31 -45 -30q-18 0 -47 5t-27 5q-45 0 -69 23q-16 14 -107.5 141t-91.5 135zM90 821q-4 483 76 711q16 49 84 45q78 -4 141 -61q68 -63 58 -146q-25 -240 -25 -557q0 -577 29 -782q4 -23 -68 -39 q-57 -14 -98 -15q-98 0 -111 52q-82 301 -86 792z" />
<glyph unicode="&#xed;" horiz-adv-x="538" d="M90 821q-4 483 76 711q16 49 84 45q78 -4 141 -61q68 -63 58 -146q-25 -240 -25 -557q0 -577 29 -782q4 -23 -68 -39q-57 -14 -98 -15q-98 0 -111 52q-82 301 -86 792zM223 1702q0 4 6 12q39 55 97 154q23 61 47 123q23 37 104 34q12 -2 37 1.5t37 3.5q102 0 102 -31 q0 -8 -111.5 -134t-127.5 -143q-25 -23 -68 -22q-18 0 -53 -4t-45 -4q-25 0 -25 10z" />
<glyph unicode="&#xee;" horiz-adv-x="538" d="M10 1688l66 118q65 117 63 131q29 80 158 80q145 0 176 -90q15 -37 107 -225q0 -20 -39 -33q-31 -8 -58 -6q-25 2 -47 4t-39 27q-33 78 -96 186q-16 -18 -51 -92t-45 -86q-27 -35 -107 -35q-88 0 -88 21zM90 821q-4 483 76 711q16 49 84 45q78 -4 141 -61q68 -63 58 -146 q-25 -240 -25 -557q0 -577 29 -782q4 -23 -68 -39q-57 -14 -98 -15q-98 0 -111 52q-82 301 -86 792z" />
<glyph unicode="&#xef;" horiz-adv-x="538" d="M-25 1868q0 39 17 61q29 41 149 41h49q23 -6 35 -31q27 -55 27 -157q0 -74 -51 -99q-35 -18 -117 -18q-98 0 -96 64q0 23 -6.5 70.5t-6.5 68.5zM90 821q-4 483 76 711q16 49 84 45q78 -4 141 -61q68 -63 58 -146q-25 -240 -25 -557q0 -577 29 -782q4 -23 -68 -39 q-57 -14 -98 -15q-98 0 -111 52q-82 301 -86 792zM346 1896q0 43 32 59.5t165 16.5q75 0 75 -174q0 -82 -47 -110q-37 -20 -120 -21q-104 0 -99 62q2 23 2 47q0 29 -4 68.5t-4 51.5z" />
<glyph unicode="&#xf0;" horiz-adv-x="1275" d="M-14 1456q-10 35 12 45q233 117 522 121q439 6 584 -182q119 -156 119 -432q0 -250 -95 -488q-98 -248 -249 -358q-131 -98 -304 -127q0 -37 -114 -53q-27 -4 -51 -5q-98 0 -113 52q-66 250 -82 676l-113 4q-37 0 -67 57q-29 51 -29 106q0 78 62 70q63 -10 145 -6 q4 176 20 326q-43 -8 -61 0q-37 16 -100 79q-72 70 -86 115zM547 698q2 -201 6 -356q33 8 139 66q129 82 207 284q68 178 68 365q0 150 -49.5 222.5t-186.5 72.5q-47 0 -162 -13q-14 -150 -20 -370q100 6 172 -6q29 -6 49.5 -57.5t20.5 -108.5q0 -100 -56 -101q-92 0 -188 2 z" />
<glyph unicode="&#xf1;" horiz-adv-x="1294" d="M90 410q0 625 51 1089q8 74 66.5 117t134.5 43q70 0 82 -29q23 -49 418 -950q-12 143 -13 305q0 332 39 576q8 49 50 51q59 4 151 -52.5t84 -105.5q-63 -369 -102 -1393q0 -35 -41 -41q-55 -6 -125 15q-78 20 -92 59q-16 47 -387 783q-49 -328 -50 -627q0 -141 13 -266 q2 -18 -15.5 -31.5t-44.5 -7.5q-55 14 -127 75q-84 74 -86 138q-6 106 -6 252zM430 1810q0 78 39 130.5t113 52.5q57 0 127.5 -42t85.5 -42q45 0 53 82q2 16 59 16q61 0 66 -2q35 -6 35 -39q0 -274 -164 -274q-51 0 -118 44t-89 44q-27 0 -27 -33q0 -6 3 -17.5t3 -15.5 q0 -25 -106 -24q-63 0 -76 30q-4 10 -4 90z" />
<glyph unicode="&#xf2;" d="M43 862q4 307 141 545q106 184 232 248q25 12 51 12q23 0 100 -43q41 29 142 74q55 14 104 -6q125 -51 201 -230q96 -227 84 -618q-12 -414 -180 -660q-156 -227 -377 -225q-209 2 -354.5 260t-143.5 643zM307 2058q0 31 80 31q156 0 174 -12q31 -16 74 -152 q26 -49 61 -145q4 -31 -45 -31q-20 0 -48 5l-28 5q-45 0 -69 23q-14 14 -106.5 141t-92.5 135zM340 823q-8 -254 72 -432q72 -158 153 -155q88 2 158 137q84 165 86 450q2 270 -70 434q-61 143 -143 144q-76 0 -156 -152q-92 -176 -100 -426z" />
<glyph unicode="&#xf3;" d="M43 862q4 307 141 545q106 184 232 248q25 12 51 12q23 0 100 -43q41 29 142 74q55 14 104 -6q125 -51 201 -230q96 -227 84 -618q-12 -414 -180 -660q-156 -227 -377 -225q-209 2 -354.5 260t-143.5 643zM340 823q-8 -254 72 -432q72 -158 153 -155q88 2 158 137 q84 165 86 450q2 270 -70 434q-61 143 -143 144q-76 0 -156 -152q-92 -176 -100 -426zM498 1769q0 4 4 11q39 57 96 153q25 61 47 123q25 39 105 35q14 0 38.5 2t34.5 2q103 0 103 -31q0 -6 -110.5 -133t-129.5 -143q-23 -23 -68 -23q-16 0 -51 -3t-47 -3q-23 0 -22 10z" />
<glyph unicode="&#xf4;" d="M43 862q4 307 141 545q106 184 232 248q25 12 51 12q23 0 100 -43q41 29 142 74q55 14 104 -6q125 -51 201 -230q96 -227 84 -618q-12 -414 -180 -660q-156 -227 -377 -225q-209 2 -354.5 260t-143.5 643zM317 1759q0 -2 66 117t63 133q29 78 160 78q145 0 174 -88 q15 -39 107 -225q0 -23 -39 -33q-29 -8 -57 -6q-25 0 -47.5 3t-38.5 25q-33 78 -97 187q-16 -16 -51 -90t-45 -88q-27 -33 -104 -33q-90 0 -91 20zM340 823q-8 -254 72 -432q72 -158 153 -155q88 2 158 137q84 165 86 450q2 270 -70 434q-61 143 -143 144q-76 0 -156 -152 q-92 -176 -100 -426z" />
<glyph unicode="&#xf5;" d="M43 862q4 307 141 545q106 184 232 248q25 12 51 12q23 0 100 -43q41 29 142 74q55 14 104 -6q125 -51 201 -230q96 -227 84 -618q-12 -414 -180 -660q-156 -227 -377 -225q-209 2 -354.5 260t-143.5 643zM334 1882q0 80 35 127q41 55 116 55q57 0 127 -42t86 -42 q43 0 54 82q2 16 59 17h63q37 -6 37 -41q0 -272 -163 -273q-53 0 -120 43t-87 43q-27 0 -27 -32q0 -6 3 -16.5t3 -16.5q0 -23 -106 -23q-63 0 -76 31q-4 10 -4 88zM340 823q-8 -254 72 -432q72 -158 153 -155q88 2 158 137q84 165 86 450q2 270 -70 434q-61 143 -143 144 q-76 0 -156 -152q-92 -176 -100 -426z" />
<glyph unicode="&#xf6;" d="M43 862q4 307 141 545q106 184 232 248q25 12 51 12q23 0 100 -43q41 29 142 74q55 14 104 -6q125 -51 201 -230q96 -227 84 -618q-12 -414 -180 -660q-156 -227 -377 -225q-209 2 -354.5 260t-143.5 643zM285 1933q0 41 16 64q29 41 150 41q43 0 49 -2q23 -4 35 -29 q26 -58 26 -158q0 -74 -51 -100q-35 -16 -117 -16q-98 0 -96 63q0 23 -6 70t-6 67zM340 823q-8 -254 72 -432q72 -158 153 -155q88 2 158 137q84 165 86 450q2 270 -70 434q-61 143 -143 144q-76 0 -156 -152q-92 -176 -100 -426zM655 1964q0 41 32 58.5t165 17.5 q76 0 76 -174q0 -82 -49 -111q-35 -20 -119 -20q-104 0 -98 61q2 23 2 45q0 29 -4.5 70t-4.5 53z" />
<glyph unicode="&#xf8;" d="M29 39q0 18 18.5 44t114.5 183q-121 250 -119 596q4 307 141 545q106 184 232 248q25 12 51 12q23 0 100 -43q41 29 142 74q131 37 245 -127q47 76 54 86q31 39 98 39q49 0 49 -31q0 -15 -14 -33q-45 -68 -119 -188q88 -225 76 -600q-12 -414 -180 -660 q-156 -227 -377 -225q-172 2 -305 184l-80 -133q-20 -31 -58 -30q-70 0 -69 59zM340 825q-4 -129 16 -243l394 653q-63 168 -154 168q-76 0 -156 -152q-92 -176 -100 -426zM399 420q74 -184 166 -182q88 2 158 137q84 165 86 450q2 133 -16 246q-162 -266 -394 -651z" />
<glyph unicode="&#xf9;" horiz-adv-x="1202" d="M76 926q-10 608 45 655q37 31 158 31q94 0 122 -25q12 -8 15 -188q0 -125 -2 -344q-4 -233 -4 -228q0 -238 49 -397q53 -178 145 -180q86 -2 146 180q47 150 63 375q6 92 12 508q4 291 31 318.5t95.5 52t119.5 24.5q39 0 51 -16q25 -35 25 -322q-1 -229 -19 -524 q-25 -385 -106 -576q-129 -295 -428 -290q-506 8 -518 946zM311 2021q0 31 78 31q156 0 176 -10q29 -18 74 -154q24 -49 59 -145q4 -29 -45 -29q-18 0 -46.5 4t-26.5 4q-45 0 -70 23q-16 14 -107.5 142t-91.5 134z" />
<glyph unicode="&#xfa;" horiz-adv-x="1202" d="M76 926q-10 608 45 655q37 31 158 31q94 0 122 -25q12 -8 15 -188q0 -125 -2 -344q-4 -233 -4 -228q0 -238 49 -397q53 -178 145 -180q86 -2 146 180q47 150 63 375q6 92 12 508q4 291 31 318.5t95.5 52t119.5 24.5q39 0 51 -16q25 -35 25 -322q-1 -229 -19 -524 q-25 -385 -106 -576q-129 -295 -428 -290q-506 8 -518 946zM506 1720q0 4 4 11q39 57 96 153q23 61 47 123q23 39 105 35q12 0 36.5 2t36.5 2q103 0 103 -31q0 -6 -111.5 -133t-128.5 -143q-25 -23 -67 -23q-18 0 -52 -3t-47 -3q-23 0 -22 10z" />
<glyph unicode="&#xfb;" horiz-adv-x="1202" d="M76 926q-10 608 45 655q37 31 158 31q94 0 122 -25q12 -8 15 -188q0 -125 -2 -344q-4 -233 -4 -228q0 -238 49 -397q53 -178 145 -180q86 -2 146 180q47 150 63 375q6 92 12 508q4 291 31 318.5t95.5 52t119.5 24.5q39 0 51 -16q25 -35 25 -322q-1 -229 -19 -524 q-25 -385 -106 -576q-129 -295 -428 -290q-506 8 -518 946zM322 1749q0 -2 64.5 115.5t64.5 134.5q27 78 157 78q145 0 176 -88q15 -40 107 -226q0 -23 -39 -32q-31 -8 -57 -7q-25 0 -47.5 3.5t-38.5 25.5q-33 78 -97 186q-16 -18 -52 -90.5t-44 -87.5q-27 -35 -106 -35 q-88 0 -88 23z" />
<glyph unicode="&#xfc;" horiz-adv-x="1202" d="M76 926q-10 608 45 655q37 31 158 31q94 0 122 -25q12 -8 15 -188q0 -125 -2 -344q-4 -233 -4 -228q0 -238 49 -397q53 -178 145 -180q86 -2 146 180q47 150 63 375q6 92 12 508q4 291 31 318.5t95.5 52t119.5 24.5q39 0 51 -16q25 -35 25 -322q-1 -229 -19 -524 q-25 -385 -106 -576q-129 -295 -428 -290q-506 8 -518 946zM301 1923q0 41 16 64q27 41 150 41q43 0 47 -3q25 -4 37 -28q27 -58 27 -158q0 -74 -52 -100q-37 -16 -116 -17q-98 0 -97 64q0 23 -6 70t-6 67zM672 1952q0 43 31.5 60.5t164.5 17.5q76 -1 76 -175 q0 -82 -49 -110q-35 -20 -119 -21q-104 0 -98 62q2 23 2 45q0 29 -4 68.5t-4 52.5z" />
<glyph unicode="&#xfd;" horiz-adv-x="1112" d="M29 1518q14 41 96 86q76 43 137 51q51 6 55 -21q10 -109 125 -389q96 -233 140 -305q63 184 114 324q121 330 160 370q6 8 35 8q55 0 123 -18q76 -20 92 -45q16 -27 -150 -455q-106 -270 -215 -542q-14 -342 15 -551q4 -23 -70 -41q-57 -12 -100 -13q-117 0 -131 52 q-59 221 -64 561q-80 150 -221 497q-158 385 -141 431zM492 1726q0 6 4 13q39 57 96 153q25 61 47 123q25 39 104 35q14 0 39 2t35 2q103 0 103 -31q0 -6 -111 -133t-129 -143q-23 -23 -68 -23q-16 0 -51 -3t-47 -3q-23 0 -22 8z" />
<glyph unicode="&#xff;" horiz-adv-x="1112" d="M29 1518q14 41 96 86q76 43 137 51q51 6 55 -21q10 -109 125 -389q96 -233 140 -305q63 184 114 324q121 330 160 370q6 8 35 8q55 0 123 -18q76 -20 92 -45q16 -27 -150 -455q-106 -270 -215 -542q-14 -342 15 -551q4 -23 -70 -41q-57 -12 -100 -13q-117 0 -131 52 q-59 221 -64 561q-80 150 -221 497q-158 385 -141 431zM285 1915q0 39 16 61q29 41 150 41q43 0 49 -2q23 -4 35 -28q26 -58 26 -158q0 -74 -51 -98q-35 -18 -117 -19q-98 0 -96 64q0 23 -6 69.5t-6 69.5zM655 1944q0 41 32 58t165 17q76 0 76 -174q0 -82 -47 -110 q-37 -20 -121 -21q-104 0 -98 62q2 23 2 47q0 27 -4.5 67.5t-4.5 53.5z" />
<glyph unicode="&#x152;" horiz-adv-x="1808" d="M51 862q2 307 142 545q106 184 229 248q27 12 51 12q25 0 102 -43q41 29 142 74q125 35 237 -117q39 16 121 27q119 16 289 16q135 0 192 -8q51 -6 109.5 -63.5t58.5 -108.5q0 -41 -51 -43q-115 -6 -268 -27q-186 -27 -250 -55q-10 -119 -16 -313q238 -12 415 51 q23 8 37 -33q12 -31 13 -59q0 -84 -68 -123q-156 -94 -401 -142q0 -109 12 -436q131 12 315 86q158 63 260 131q11 6 23 -12q18 -25 18 -78q0 -55 -26 -86q-133 -137 -310 -229q-156 -82 -280 -94q-61 -6 -156.5 49t-105.5 96v4q-147 -174 -336 -172q-209 2 -352 258 q-150 260 -146 645zM346 811q-8 -248 80 -430q76 -158 147 -158q76 0 150 137q92 170 94 451q2 270 -69 434q-63 143 -146 144q-76 0 -156 -152q-92 -176 -100 -426z" />
<glyph unicode="&#x153;" horiz-adv-x="1808" d="M51 862q2 307 142 545q106 184 229 248q27 12 51 12q25 0 102 -43q41 29 142 74q125 35 237 -117q39 16 121 27q119 16 289 16q135 0 192 -8q51 -6 109.5 -63.5t58.5 -108.5q0 -41 -51 -43q-115 -6 -268 -27q-186 -27 -250 -55q-10 -119 -16 -313q238 -12 415 51 q23 8 37 -33q12 -31 13 -59q0 -84 -68 -123q-156 -94 -401 -142q0 -109 12 -436q131 12 315 86q158 63 260 131q11 6 23 -12q18 -25 18 -78q0 -55 -26 -86q-133 -137 -310 -229q-156 -82 -280 -94q-61 -6 -156.5 49t-105.5 96v4q-147 -174 -336 -172q-209 2 -352 258 q-150 260 -146 645zM346 811q-8 -248 80 -430q76 -158 147 -158q76 0 150 137q92 170 94 451q2 270 -69 434q-63 143 -146 144q-76 0 -156 -152q-92 -176 -100 -426z" />
<glyph unicode="&#x178;" horiz-adv-x="1099" d="M-2 1518q14 41 92 85t141 52q51 6 54 -21q10 -109 127 -389q96 -233 137 -305q63 184 115 324q121 330 159 370q6 8 37 8q53 0 121 -18q76 -20 92 -45q18 -27 -147 -455q-109 -270 -217 -542q-14 -342 14 -551q4 -23 -70 -41q-57 -12 -100 -13q-117 0 -129 52 q-59 221 -66 561q-80 150 -221 497q-158 385 -139 431zM244 1917q0 39 16 61q29 41 150 41q43 0 49 -2q23 -4 35 -28q26 -58 26 -158q0 -74 -51 -98q-35 -18 -117 -19q-98 0 -96 64q0 23 -6 69.5t-6 69.5zM614 1946q0 41 32 58t165 17q76 0 76 -174q0 -82 -47 -110 q-37 -20 -121 -21q-104 0 -98 62q2 23 2 47q0 27 -4.5 67.5t-4.5 53.5z" />
<glyph unicode="&#x2c6;" horiz-adv-x="933" d="M178 1718l64 118q65 118 65 132q27 80 158 80q145 0 176 -90q13 -39 107 -225q0 -23 -41 -33q-29 -8 -56 -6q-25 2 -48 4t-40 26q-33 78 -96 187q-16 -18 -51 -92t-45 -86q-25 -35 -105 -35q-88 0 -88 20z" />
<glyph unicode="&#x2dc;" horiz-adv-x="835" d="M137 1833q0 78 38 130t114 52q57 0 127.5 -42t85.5 -42q45 0 53 82q2 16 59 17q61 0 66 -2q35 -6 35 -39q0 -272 -164 -273q-51 0 -117.5 43t-89.5 43q-27 0 -27 -33q0 -6 3.5 -17t3.5 -15q0 -23 -107 -23q-63 0 -76 29q-4 10 -4 90z" />
<glyph unicode="&#x2000;" horiz-adv-x="1058" />
<glyph unicode="&#x2001;" horiz-adv-x="2116" />
<glyph unicode="&#x2002;" horiz-adv-x="1058" />
<glyph unicode="&#x2003;" horiz-adv-x="2116" />
<glyph unicode="&#x2004;" horiz-adv-x="705" />
<glyph unicode="&#x2005;" horiz-adv-x="529" />
<glyph unicode="&#x2006;" horiz-adv-x="352" />
<glyph unicode="&#x2007;" horiz-adv-x="352" />
<glyph unicode="&#x2008;" horiz-adv-x="264" />
<glyph unicode="&#x2009;" horiz-adv-x="423" />
<glyph unicode="&#x200a;" horiz-adv-x="117" />
<glyph unicode="&#x2010;" horiz-adv-x="925" d="M98 758q0 51 35 61q63 20 350 23q256 0 334 -8q43 -6 43 -70q0 -43 -21.5 -85t-52.5 -44q-49 -4 -307 -6q-248 0 -301 2q-31 2 -55.5 43t-24.5 84z" />
<glyph unicode="&#x2011;" horiz-adv-x="925" d="M98 758q0 51 35 61q63 20 350 23q256 0 334 -8q43 -6 43 -70q0 -43 -21.5 -85t-52.5 -44q-49 -4 -307 -6q-248 0 -301 2q-31 2 -55.5 43t-24.5 84z" />
<glyph unicode="&#x2012;" horiz-adv-x="925" d="M98 758q0 51 35 61q63 20 350 23q256 0 334 -8q43 -6 43 -70q0 -43 -21.5 -85t-52.5 -44q-49 -4 -307 -6q-248 0 -301 2q-31 2 -55.5 43t-24.5 84z" />
<glyph unicode="&#x2013;" horiz-adv-x="1171" d="M98 758q0 41 23 57q37 25 500 25q362 -1 440 -9q43 -6 43 -69q0 -43 -21.5 -85t-52.5 -44q-47 -4 -428 -4q-369 0 -424 2q-31 2 -55.5 43t-24.5 84z" />
<glyph unicode="&#x2014;" horiz-adv-x="1624" d="M98 758q0 41 23 57q37 25 743 25q567 -1 645 -9q43 -6 43 -69q0 -43 -22.5 -85t-52.5 -44q-47 -4 -652 -4q-592 0 -647 2q-31 2 -55.5 43t-24.5 84z" />
<glyph unicode="&#x2018;" horiz-adv-x="544" d="M125 1348q8 94 86 215q86 129 158 129q14 0 26 -6q27 -12 -18 -84q-31 -47 -64 -93q-14 -33 13 -36q83 -19 73 -125q-10 -92 -37.5 -123t-99.5 -31q-63 0 -104 39t-33 115z" />
<glyph unicode="&#x2019;" horiz-adv-x="546" d="M180 1544q10 90 38 122t99 30q63 0 103 -35q43 -41 37 -117q-10 -94 -88 -215q-86 -131 -158 -131q-14 0 -27 6q-27 12 19 86q33 45 63 90q14 33 -12 39q-84 18 -74 125z" />
<glyph unicode="&#x201a;" horiz-adv-x="628" d="M180 90q10 90 38 122t99 30q63 0 103 -35q43 -41 37 -117q-10 -94 -88 -215q-86 -131 -158 -131q-14 0 -27 6q-27 12 19 86q33 45 63 90q14 33 -12 39q-84 18 -74 125z" />
<glyph unicode="&#x201c;" horiz-adv-x="886" d="M119 1348q8 94 86 215q86 129 157 129q14 0 27 -6q27 -12 -18 -84q-31 -47 -62 -93q-16 -33 10 -36q84 -19 74 -125q-10 -92 -37.5 -123t-99.5 -31q-63 0 -104 39t-33 115zM467 1348q8 94 86 215q86 129 158 129q14 0 26 -6q27 -12 -18 -84q-31 -47 -62 -93 q-16 -33 11 -36q83 -19 73 -125q-10 -92 -37.5 -123t-99.5 -31q-63 0 -104 39t-33 115z" />
<glyph unicode="&#x201d;" horiz-adv-x="886" d="M180 1544q10 90 38 122t99 30q63 0 103 -35q43 -41 37 -117q-10 -94 -88 -215q-86 -131 -158 -131q-14 0 -27 6q-27 12 19 86q33 45 63 90q14 33 -12 39q-84 18 -74 125zM528 1544q10 90 38 122t100 30q63 0 102 -35q43 -41 37 -117q-10 -94 -88 -215q-86 -131 -158 -131 q-14 0 -27 6q-27 12 19 86q33 45 63 90q14 33 -12 39q-84 18 -74 125z" />
<glyph unicode="&#x201e;" horiz-adv-x="886" d="M180 90q10 90 38 122t99 30q63 0 103 -35q43 -41 37 -117q-10 -94 -88 -215q-86 -131 -158 -131q-14 0 -27 6q-27 12 19 86q33 45 63 90q14 33 -12 39q-84 18 -74 125zM528 90q10 90 38 122t100 30q63 0 102 -35q43 -41 37 -117q-10 -94 -88 -215q-86 -131 -158 -131 q-14 0 -27 6q-27 12 19 86q33 45 63 90q14 33 -12 39q-84 18 -74 125z" />
<glyph unicode="&#x2022;" horiz-adv-x="1208" d="M307 762q0 123 87 209t210 86q121 0 208 -86t87 -209q0 -121 -87 -209t-210 -88t-209 87t-86 210z" />
<glyph unicode="&#x2026;" horiz-adv-x="1642" d="M180 90q10 90 38 122t99 30q66 0 103 -35q45 -41 37 -117q-18 -156 -121 -143q-168 18 -156 143zM731 90q10 90 38 122t99 30q66 0 103 -35q45 -41 37 -117q-18 -156 -121 -143q-168 18 -156 143zM1274 90q10 90 37.5 122t99.5 30q66 0 102 -35q45 -41 37 -117 q-18 -156 -120 -143q-168 18 -156 143z" />
<glyph unicode="&#x202f;" horiz-adv-x="423" />
<glyph unicode="&#x2039;" horiz-adv-x="546" d="M70 799q0 145 90 176q39 14 225 106q23 0 33 -39q8 -30 6 -57q-2 -25 -4 -47.5t-25 -38.5q-80 -33 -188 -96q18 -16 92 -52t86 -44q35 -27 35 -107q0 -88 -21 -88l-117 66q-118 65 -132 63q-80 29 -80 158z" />
<glyph unicode="&#x203a;" horiz-adv-x="546" d="M104 625q0 25 3.5 47t25.5 39q78 33 186 96q-16 16 -89.5 51t-88.5 45q-35 27 -35 107q0 88 23 88q-2 0 115.5 -65.5t134.5 -63.5q78 -29 78 -158q0 -145 -88 -176q-39 -14 -226 -107q-23 0 -32 39q-8 31 -7 58z" />
<glyph unicode="&#x205f;" horiz-adv-x="529" />
<glyph unicode="&#x2122;" horiz-adv-x="1323" d="M152 1479q-4 31 16 34q252 61 330 62q37 0 75 -4q29 -5 25 -64q-2 -49 -16 -49q-68 4 -138 -10q-8 -104 -8 -205q0 -231 13 -313q2 -14 -48 -21q-57 -8 -65 19q-33 121 -35 319q0 92 8 168q-33 -6 -67 -8q-33 -4 -59.5 18.5t-30.5 53.5zM637 1260q-2 193 27 282 q6 20 55 17q43 -4 55 -35t131 -363q10 70 53 226.5t60 173.5q10 12 39 12q55 0 71 -23q8 -12 9 -303v-321q2 -18 -11.5 -27.5t-29.5 -7.5q-37 2 -54 27q-10 12 -12 329q-66 -190 -90 -315q-6 -37 -45 -19q-31 14 -49 43q-8 14 -98 293q-6 -215 6 -313q2 -16 -43 -25 q-35 -4 -43 33q-29 119 -31 316z" />
<glyph unicode="&#x25fc;" horiz-adv-x="1658" d="M0 0v1659h1659v-1659h-1659z" />
</font>
</defs>
</svg>
